<svg  xmlns="http://www.w3.org/2000/svg" version="1.1" 
  xmlns:xlink="http://www.w3.org/1999/xlink"
  width="100%" height="100%" viewBox="0 0 1000 683"
  onload="initEyescribe()">     
  
  <title>W3C Opening</title>

  <script xlink:href="eyelight.js"/>

  <defs>
    <image id="source-image" width="1000" height="683" xlink:href="01_W3C_Opening.jpg"/>


    <clipPath id="hilite-clip">
      <use id="hilite-clip-use" xlink:href="#"/>
    </clipPath>

    <mask id="mask">
      <rect id="image-mask" width="100%" height="100%" fill="white" opacity="1"/>
    </mask> 

    <mask id="hilite-mask">
      <rect width="100%" height="100%" fill="white" opacity="0"/>
    </mask> 

  </defs>

  <style type="text/css">
    #hilites {
      fill: none;
      stroke: none;
    }

    .hilite {
      pointer-events: all;      
    }

    .test {
      fill: yellow;
      stroke: red;
      stroke-width: 2px;
      fill-opacity: 0.5;
    }

    #hilite-magnifier {
      pointer-events: none;
    }

    #hilite-masker {
      fill: white;
      stroke: white;
      pointer-events: none;
    }
  </style>
  <use xlink:href="#source-image" mask="url(#mask)" />
  <use id="hilite-masker" xlink:href="#"  pointer-events="none"/>

  <g id="hilites">

    <g>
      <title>Workshop Areas of Focus:</title>
      <a xlink:href="../report.html#identity" target="_top">
        <path class="hilite" d="M57,136 c0,13.502,0.742,28.012-0.849,40.9c14.458-3.77,28.271-9.729,42.071-13.175 c18.584-4.639,43.267-0.726,62.606-0.726c31.961,0,64.098,0.467,96.023-1.151c3.169-8.536,4.979-20.68,6.17-29.845 c1.061-8.158,0.298-15.776-6.749-20.254c-10.25-6.513-16.57,0.235-25.474,2.826c-7.594,2.209-17.775,2.202-25.801,3.425 c-34.241,5.219-67.446-6.22-101.003,2.219c-7.098,1.785-14.061,2.146-21.027,5.562c-8.538,4.187-14.853,11.49-24.97,11.219">
          <title>Identity</title>
        </path>
      </a>
      <a xlink:href="../report.html#provenance" target="_top">
        <path class="hilite" d="M23,203 c-2.846,11.505-2.417,24.11-1.872,35.897c15.483-3.804,29.022-13.934,44.845-17.651 c17.095-4.017,35.338-4.246,53.004-4.246c19.549,0,38.852,0.531,57.845,2c11.076,0.856,23.622,0.946,34.201-1.751 c7.306-1.862,14.311-6.544,21.826-7.4c-0.073-5.974,3.923-10.969,5.174-16.849c1.298-6.097,0.502-12.562,1.391-18.976 c-13.414,0.542-25.218,7.047-38.266,8.753c-9.27,1.212-18.636,1.223-28.199,1.223c-17.884,0-34.541-1.246-51.997-3 c-16.324-1.641-36.036-3.697-50.948,3.026c-8.656,3.903-18.038,6.684-26.801,11.248c-5.769,3.004-17.147,5.616-20.203,10.726">
          <title>Provenance</title>
        </path>
      </a>
      <a xlink:href="../report.html#primitives-sink" target="_top">
        <path class="hilite" d="M74,247 c-6.261,10.818-13.224,15.029-14,28.497c-0.632,10.964,2.364,17.912,8.749,26.555 c5.97,8.081,6.993,9.967,16.573,6.973c8.626-2.696,16.968-7.977,26.678-9.025c18.718-2.02,38.093-1,57-1c18.081,0,32.681,5.016,50,5 c23.123-0.021,52.316,8.454,73.219-2.777c13.897-7.468,10.278-57.425,5.582-72.846c-6.037,3.678-14.471,4.108-21.05,6.346 c-8.095,2.752-16.992,6.636-24.974,9.055c-16.804,5.093-36.14,1.509-53.329-1.996c-17.389-3.547-35.481-1.922-52.429-6.504 c-18.127-4.901-44.207,4.294-61.013,9.504c-4.576,1.418-7.431,3.857-13.007,3.219">
          <title>Blockchain Primitives &amp; APIs</title>
        </path>
      </a>
      <a xlink:href="../report.html#primitives-sink" target="_top">
        <path class="hilite" d="M30,362 c0,7.908-1.606,18.031-0.023,25.801c1.659,8.139,12.224,14.262,10.952,22.846 c17.117-15.99,37.148-16.343,59.003-19.873c24.048-3.883,48.603-2.6,73.041-3.773c18.986-0.912,38.071-7.061,56.082-13 c23.574-7.773,11.826-18.691,3.699-33.977c-1.877-3.532-1.612-7.292-3.929-10.849c-12.962-1.668-27.803,8.975-40.603,11.048 c-16.464,2.666-32.234,1.88-48.226-1.278c-20.805-4.108-41.178-1.299-60.748,4.833c-9.51,2.98-18.863,2.706-27.697,7.926 c-7.179,4.24-13.783,8.666-21.552,11.297">
          <title>The Kitchen Sink</title>
        </path>
      </a>
    </g>
    <a xlink:href="../index.html" target="blank">
      <path class="hilite" d="M124,430 c0,13.827,0.759,20.23,7,31.996c3.747,7.064,4.079,12.555,11.977,11.227 c7.679-1.292,15.137-9.717,23-12.223c9.774-3.115,23.268-8.418,33.167-10.071c12.17-2.032,28.001,1.069,40.763,1.071 c15.098,0.002,24.751,5.723,39.093,6.996c18.025,1.602,35.938-3.267,53.824-1.992c13.907,0.99,26.034,7.104,40.144,5.996 c15.684-1.232,31.412-5.481,47.539-6c14.085-0.453,30.226-0.59,43.371-6.274c6.818-2.948,19.67-9.654,23.171-16.678 c1.118-2.242,3.11-11.09,3.781-13.777c1.46-5.848,0.909-11.526,1.171-17.493c0.375-8.536,4.086-17.789-8-16.825 c-7.213,0.575-17.904,6.989-25.052,9.325c-20.138,6.584-41.648,15.639-63.023,17.746c-21.148,2.084-43.999-1.965-65.681-2.023 c-14.498-0.039-29.605,2.837-44.098,1.071c-12.491-1.521-24.918-5.205-37.342-7.071c-20.413-3.066-45.833-5.656-66.011-0.829 c-14.177,3.392-27.638,9.835-40.865,15.849c-5.781,2.629-10.84,8.545-17.929,6.98">
        <title>Blockchains and the Web</title>
      </path>
    </a>
    <g>
      <a xlink:href="https://w3.org" target="_top">
        <path class="hilite" data-mask="0.5" d="M425.5,321.5c21.826-3.826,62.31-8.545,79.531-1.227c8.657,3.679,36.342,8.677,47.326-2.599 c0.896-16.469-41.514,13.393-37.909-36.226c1.231-16.942-8.172-38.2,24.536-37c18.239,0.669,38.925,2.018,57.568,1.052 c11.172-0.579,0.227,1.708,49.126,2.829c6.223,0.38,16.681,0.126,22.623,2.37c5.622,2.123-0.014,2.259,6.025,3.975 c1.425,7.785,3.166,17.614,3.174,25.826c0.007,7.15-4.091,35.047,0.199,40.801c3.673,4.925,15.212-1.562,20.023,4.028 c6.035,7.013-6.616,68.258,1.777,70.194c13.934,3.213,12.123,14.872,12.048,49.787c-0.038,17.804,0.045,17.237-18.025,17.19 c-20-0.052-40.002,1-60.003,1c-20.178,0-40.384-2-60.817-2c-10.645,0-8.093-0.164-20.199,0c-10.19,0.138-14.407,1.241-15.846-8.38 c-1.684-11.264-1.491-20.342-0.661-31.966c0.518-7.252-0.741-13.2,1.258-20.375c1.097-3.937,12.936-2.908,12.611-8.27 c-0.273-4.528-3.412-18.177-6.542-20.672c-2.256-1.798-23.568-2.082-25.84-4.237c-2.681-2.542-2.775-3.542-4.566-7.397 c-2.906-6.253-21.393,9.301-28.399,12.542c-8.515,3.939-17.083-1.433-26.4-1.409c-19.447,0.05-14.898,6.557-27.814-33.212 C423.663,317.674,425.521,328.229,425.5,321.5 Z">
          <title>W3C</title>
          <desc>client-side features, data and formats, communications protocols</desc>
        </path>
      </a>

      <path class="hilite" data-zoom="1.1" d="M514,246.226 c-1.605,13.875-2.424,30.854,0,51.774c2,17.262,36.937,14.072,49,16.285 c12.034,2.208,20.538-0.059,33-0.059c8.388,0,16.867,0.231,25.203-0.223c12.14-0.661,24.358,1.419,36.797,1.248 c8.293-0.114,13.588,0.381,21.826,0.01C677,283.396,684.186,244.216,662,244.02c-65.85-0.584-30.887-2.54-54-1.02 c-21.125,1.39-29.414-0.888-51-1.774c-19.781-0.812-43,5-44,8">
        <title>Client-side features</title>
      </path>
      <path class="hilite" data-zoom="1.1" d="M596.78,315.604 c5.542-0.281,11.284,1.164,16.905,1.658c19.887,1.749,40.392,3.578,60.464,3.578 c5.542,0,12.933-0.171,18.424,0.586c8.42,1.161,8.105,8.201,8.331,13.358c0.524,11.975-1.389,24.603-2,36.569 c-0.423,8.288-1.541,15.911-9.642,19.4c-4.41,1.899-9.677,1.092-14.423,1.33c-5.404,0.271-10.887,0.847-16.382,0.84 c-5.76-0.008-11.366-0.781-17.064-1.244c-7.094-0.577-13.01-0.147-20.02,0.413c-6.108,0.488-12.237-0.344-18.339-0.414 c-5.661-0.065-14.741,1.363-20.01-0.407c-4.541-1.525-2.004-4.416-3.387-8.262c-1.182-3.289-0.608-6.684-1.812-9.854 c-0.835-2.202-0.689-6.47-1.059-8.832c-0.799-5.116,0.084-9.089-1.396-14.162c-0.84-2.88-0.901-7.254-0.235-10.395 c0.626-2.953-0.93-11.33,0.088-13.981c1.715-4.466,2.439-7.722,8.35-9.497C589.223,314.593,590.961,315.899,596.78,315.604z">
        <title>data and formats</title>
      </path>
      <path class="hilite" data-zoom="1.1" d="M533.5,399.5c-0.724,11.977-1.002,23.306-1,36 c0.001,5.273-1.461,12.969,0,18c1.742,5.999,3.85,5.746,7.174,10.826c34.572,2.022,71.853-1.1,106.826,0.174 c8.794,0.32,16.417-0.982,25.351-1c9.713-0.02,27.239,2.091,35.594-3.003c12.986-7.918,4.238-36.508,3.032-48.97 c-0.855-8.836,1.133-14.559-8.203-18.801c-7.239-3.29-17.928-0.583-25.774-0.226c-16.588,0.755-33.393,0-50,0 c-16.688,0-31.469,1.123-48.052,1.948c-9.873,0.491-38.082-2.699-44.746,5.254c-0.296,0.567-0.363,1.166-0.203,1.797">
        <title>communications protocols</title>
      </path>

      <path class="hilite" d="M425,68 c0,5.293-3.64,30.751,2.651,35.071c5.815,3.993,17.609-5.858,22.548-8.824 c16.194-9.723,32.507-14.971,49.578-22.522c35.386-15.65,68.599-19.726,108.274-19.726c21.822,0,43.203-0.129,63.948,4.774 c11.959,2.827,25.025,1.186,36.996,3.733c6.543,1.392,12.447,2.719,19.004,3.692c4.414,0.655,12.859,0.45,17.071,1.804 c6.776,2.179,11.332,7.149,18.933,8.993c4.342,1.054,8.629,0.688,12.841,1.932c8.32,2.458,15.422,7.84,24.084,9.095 c16.546,2.396,35.201,0.977,52.02,0.977c11.798,0,21.333,2.351,32.682,3c12.983,0.743,22.841-2.355,34.664-5.606 c10.313-2.837,21.568,0.092,31.706-2.394c8.765-2.149,13.523-9.898,15.996-18.977c3.332-12.228,2.47-19.002-10.271-20.023 c-11.354-0.91-21.152,2.579-31.51,3.997c-13.271,1.817-27.896,0.36-41.239,0.952c-12.264,0.544-21.015,2.783-33.195-0.674 c-12.744-3.617-25.084-2.718-37.836-5.5c-25.953-5.662-48.582-21.659-75.842-21.774c-29.254-0.124-56.767-11.701-86.129-12 c-24.667-0.251-49.059,1.046-73.265,2c-27.652,1.09-50.417,9.565-77.61,11.178c-0.768,4.648-4.6,6.042-8.925,4.648 c-2.199-17.916-21.768-2.686-30.439,1.948c-13.092,6.996-13.124,10.584-12.011,25.075c-9.207-1.244-21.728,8.686-23.724,17.151">
        <title>W3C voluntary standards setting stewarding the Open Web</title>
        <desc>
          1. workshops and Community Groups
          2. Working Groups
          3. Recommendation Track
          4. Publication of Standards
        </desc>
      </path>
    </g>

    <path class="hilite" d="M585,139 c14.115-5.674,25.406-12.481,38.977-19.754c14.221-7.621,32.545-11.789,48.049-16.324 c8.371-2.449,18.17-1.791,27.029-2.699c14.355-1.472,28.194-6.495,42.965-5.223c9.615,0.828,18.568,4.775,28.357,6.199 c13.543,1.97,27.259,3.271,40.774,4.804c6.556,0.744,13.111,0.75,19.697,1.148c1.347,18.428,35.397,13.99,49.147,15.849 c15.323,2.07,17.562,13.873,16.853,27.829c-9.467,3.771-10.377,7.953-14.972,14.616c-2.399,3.48-6.241,5.463-7.651,9.781 c-1.274,3.903,0.241,7.875-1.48,11.523c-3.911,8.292-11.42,8.537-1.773,17.276c7.954,7.207,14.623,4.191,8.224,15.949 c-9.423,17.314-25.467,16.223-44.152,17.026c-8.831,0.38-22.873-2.811-31.013-1.02c-8.379,1.843-7.692,8.401-13.274,13.775 c-12.389,11.929-41.319,7.863-58.338,7.244c-17.555-0.638-35.9-3.351-47.192-19.171c-7.553-10.583-7.021-32.167-25.254-29.881 c-5.644,0.708-10.868,4.483-16.726,5.075c-8.745,0.883-14.635-2.827-22.27-5.017c-10.613-3.044-16.262-4.372-23.245-13.813 c-10.033-13.563-8.369-17.141-12.735-32.242c-1.626-5.626-7.012-6.827-5.02-14.976c1.144-4.675,4.729-7.976,9.023-9.977">
      <title>What does the Web need to support and interface better? and How can the tech of blockchain support the Web?</title>
    </path>

    <path class="hilite" d="M730,285 c11.032,1.537,17.881-7.105,27.219-10.777c9.666-3.802,19.962-6.022,30.781-7.223 c11.436-1.269,25.174-2.564,36.777-0.777c3.474,0.535,10.594,5.656,14.277,3.623c4.438-2.449,4.589-10.709,6.064-14.678 c3.723-0.794,11.793-12.743,16.123-15.925c5.773-4.243,9.892-9.604,15.231-14.214c15.074-13.016,24.464-4.608,42.526-7.028 c15.553-2.083,30.972-5.892,48-4c14.073,1.563,19.939,13.384,25.246,25.977c5.846,13.875,1.539,30.636-4.469,43.023 c-3.125,6.445-9.162,8.996-11.801,14.98c-3.186,7.227-1.835,16.145-5.225,23.82c-5.537,12.54-19.564,29.392-28.893,38.004 c-6.668,6.154-14.121,5.303-17.61,14.104c-4.105,10.357-2.669,23.542-5.197,34.146c-5.454,22.872-15.677,45.712-23.829,67.168 c-2.902,7.64-2.432,13.139-10.251,16.752c-8.194,3.787-18.594,1.77-27.81,2.029c-14.322,0.402-26.588,4.996-41.186,4.996 c-10.706,0-21.412,0.002-32.119,0c-7.891-0.001-22.945,0.512-28.905-4.975c-6.692-6.16-4.606-17.936-4.952-27.029 c-0.871-22.897-0.863-45.282,0.023-68.112c0.745-19.212,4.588-39.093,2.031-57.936c-2.036-15.014-5.578-15.979-20.035-15.948 c-10.769,0.023-21.181-1.426-20.865-13.856c9.315-2.383,20.735-4.909,29.492-8.196c-7.803,0.462-14.489-3.84-22.499-2.962 c-0.059-5.672-0.693-11.411-2.061-16.926c5.008-0.357,11.562,0.248,13.913,2.939">
      <title>Relevant work at W3C: security and privacy; Web Authentication; Web Crypto API; WebApp Security; Encryption everywhere; Web Payments</title>
    </path>


    <a xlink:href="https://twitter.com/search?q=%23blockchainweb" target="_blank">
      <path class="hilite" d="M561,527 c-6.324-7.232-17.231-8.174-26-12.277c-8.881-4.157-21.712-14.219-31.849-12.568 c-0.865,6.805-0.466,14.271-2.151,20.897c-1.48,5.823-5.375,10.054-4.023,16.948c2.125,10.84,14.302,23.093,23.763,28.055 c-19.797-1.248-37.943,14.152-15.733,27.191c11.115,6.524,28.7,2.472,41.045,3.702c8.205,0.817,15.642,2.18,22.781-2.143 c6.237-3.776,13.783-10.574,18.968-15.806c8.066-8.138,9.838-14.346,12.199-25.199c2.471-11.354,7.639-9.815,19-9.801 c12.341,0.017,24.682,0,37.023,0c54.967,0,111.303,1.822,165.773-3.219c20.79-1.925,42.222-1.781,63.255-1.781 c11.027,0,18.676,2.23,22.972-8.977c3.461-9.03,4.582-23.85-2.976-29.246c-7.864-5.615-26.987-4.41-36.349-4.801 c-13.915-0.58-28.529-0.579-42.325,0.749c-25.327,2.438-51.161-5.907-76.08-1.751c-21.929,3.658-42.128,3.717-64.452,0.199 c-10.821-1.704-23.396-2.342-34.112,0.101c-12.765,2.907-23.604,6.675-37.452,7.702c-12.167,0.903-25.876-0.822-38.106,1.023 c-7.819,1.18-19.144,8.477-17.171,19">
        <title>Twitter hashtag #blockchainweb</title>
      </path>
    </a>

    <a xlink:href="http://irc.w3.org/#blockchain" target="_blank">
      <path class="hilite" d="M641.614,552.338 c17.707,0,35.076-2.499,52.761-1.682c7.725,0.357,15.623,0.554,23.383,0.851c12.901,0.494,25.524,2.077,38.464,2.077c21.67,0,43.71,1.171,65.249,2.148c6.621,0.3,11.596,0.12,17.75-3.498 c3.513-2.064,9.168-6.772,12.874-8.281c8.823-3.593,16.268-1.9,26.02-2.315c10.495-0.446,21.334,0.472,31.742-0.822 c8.735-1.086,16.167-0.499,24.798,0.248c19.733,1.709,34.626,18.606,32.036,38.481c-1.061,8.141-5.511,15.771-9.069,22.935 c-2.012,4.048-3.527,4.945-7.704,6.981c-9.231,4.501-18.391,0.949-28.534,1.473c-15.898,0.821-26.867,0.648-42.786-1.748 c-5.399-0.812-13.516-0.072-18.643-1.896c-4.833-1.718-7.53-4.942-11.902-7.484c-11.292-6.565-11.484-7.186-23.921-9.526 c-12.546-2.361-24.285-5.247-37.123-5.161c-3.201,0.021-19.23-1.261-22.12-0.725c-5.063,0.939-17.685,0.688-22.81,0.742 c-15.254,0.162-15.254,0.162-27.035,0.585c-4.475,0.161-8.554,0.258-13.095,0.246c-8.383-0.023-16.767,0-25.15,0 c-7.479,0-14.144,1.623-21.421,2.085c-10.965,0.697-10.288-8.321-13.026-16.72c-1.821-5.583-5.288-14.482,0.092-18.162">
        <title>irc.w3.org, channel: #blockchain</title>
      </path>
    </a>

    <a xlink:href="mailto:schepers@w3.org?subject=Blockchain%20Workshop">
      <path class="hilite" d="M44,502 c0,15.549-0.685,31.362,0.151,46.849c18.832,0.974,38.255-0.944,56.849,0.929 c20.877,2.104,43.04,2.019,64.028-0.023c10.204-0.992,22.353-1.908,32.19,0.027c6.771,1.332,13.783,5.234,20.758,6.219 c11.858,1.673,25.083,0,37.069,0c11.001,0,19.173,1.954,29.112,4.02c11.308,2.351,25.896-2.02,37.842-2.02 c8.375,0,17.153,0.639,24.977,1.023c17.904,0.881,36.093,0.025,54.023-0.023c16.998-0.047,34.08,7.661,52.023,4 c16.019-3.269,31.155-29.335,22.778-45.801c-8.237-16.189-41.002-16.25-55.872-16.199c-19.986,0.068-40.885-1.011-60.906-2.777 c-22.039-1.945-43.595-1.262-66.231-1.223c-37.59,0.064-74.649-5.07-111.84-5c-28.159,0.053-55.949-4.396-83.955-3 c-16.107,0.803-42.919,1.584-53.997,13">
        <title>Doug Schepers</title>
      </path>
    </a>

    <a xlink:href="mailto:wseltzer@w3.org?subject=Blockchain%20Workshop">
      <path class="hilite" d="M75,553 c0,11.28,1.115,18.464,3.777,28.219c1.598,5.852,2.133,19.779,5.929,24.056 c6.793,7.652,20.46,2.666,29.173,2.68c17.003,0.026,33.006,7.043,50.317,7.046c18.009,0.003,34.775,3.958,52.777,4 c11.958,0.028,22.925-2.585,35.027-2c14.244,0.688,26.709,6.981,41.1,5.777c10.462-0.875,20.759-4.412,31.178-5.555 c14.605-1.602,29.312,1.187,43.806,1.777c14.588,0.595,29.313,0,43.917,0c11.32,0,21.161-0.23,32.027,3.028 c8.886,2.666,20.171,4.892,29.97,2.972c19.552-3.831,13.195-37.5,2.756-48.752c-12.484-13.457-26.401-13.248-44.779-13.248 c-21.176,0-41.55-3.182-61.973-4c-22.353-0.896-44.764,4.215-68.068,3c-19.867-1.035-40.814-1.053-61-3 c-18.436-1.777-36.414-6.144-55.354-8.004c-20.104-1.974-41.345-2.996-61.555-2.996c-17.879,0-32.842,4.945-50.023,5">
        <title>Wendy Seltzer</title>
      </path>
    </a>

    <a xlink:href="http://dpict.info/" target="_blank">
      <path id="dpict" class="hilite" d="M915,643 c0.037-5.804-1.73-10.653,3.805-13.271c9.481-4.484,5.294,4.183,8.199,7.271 c4.737,5.036,4.078,2.661,11.996,2.977c5.018,0.2,8.486,3.202,13.849,1.872c-1.457-12.866,12.742-12.681,10.303-2 c2.65-0.461,6.047,0.764,8.697,0.303c0.433,8.032,1.668,15.742,1,23.697c-17.081-0.733-32.547,4.979-49.675,3.978 c-1.568-8.819-13.983-2.348-19.193-7.778c-9.313-9.708,3.219-12.659,9.02-16.048">
        <title>dpict. graphical scribing and facilitation</title>
      </path>
    </a>  
  </g>


  <use id="hilite-magnifier" xlink:href="#source-image" clip-path="url(#hilite-clip)"/>
</svg>

