<svg  xmlns="http://www.w3.org/2000/svg"
  xmlns:xlink="http://www.w3.org/1999/xlink"
  width="100%" height="100%" viewBox="0 0 1000 691"
  onload="initEyescribe()">     
  
  <title>The Secret Sauce of Collaboration</title>

  <script xlink:href="eyelight.js"/>

  <defs>
    <image id="source-image" width="1000" height="691" xlink:href="02_Collaboration.jpg"/>


    <clipPath id="hilite-clip">
      <use id="hilite-clip-use" xlink:href="#"/>
    </clipPath>

    <mask id="mask">
      <rect id="image-mask" width="100%" height="100%" fill="white" opacity="1"/>
    </mask> 

    <mask id="hilite-mask">
      <rect width="100%" height="100%" fill="white" opacity="0"/>
    </mask> 

  </defs>

  <style type="text/css">
    #hilites {
      fill: none;
      stroke: none;
    }

    .hilite {
      pointer-events: all;      
    }

    .test {
      fill: yellow;
      stroke: red;
      stroke-width: 2px;
      fill-opacity: 0.5;
    }

    #hilite-magnifier {
      pointer-events: none;
    }

    #hilite-masker {
      fill: white;
      stroke: white;
      pointer-events: none;
    }
  </style>
  <use xlink:href="#source-image" mask="url(#mask)" />
  <use id="hilite-masker" xlink:href="#"  pointer-events="none"/>

  <g id="hilites">
    <path class="hilite" d="M62,257c0-15.224-1.349-14.728,8.948-25.003c8.103-8.085,17.417-9.463,28.856-11.746 c15.079-3.008,29.1-4.024,44.219-8.025c11.675-3.089,22.633-4.213,34.783-4.226c24.155-0.026,48.937-1.732,71.445,6.278 c18.127,6.451,25.657,4.483,64.804,13.745c6.371,1.507,4.678,25.505,9.895,29.174c5.293,3.723,10.553,0.274,16.069,2.561 c4.102,1.7,9.782,0.618,14.991,2.239c7.072,2.201,11.604,0.784,19.012,1.975c11.051,1.776,16.929,0.112,33.251,0.806 c9.106,0.387,18.024-0.109,27.598-0.603c-3.596,6.877-4.8,11.705-9.75,22.646c18.402-6.67,15.331-7.374,24.655-15.717 c6.576,7.243,11.153,23.9,6.048,32.723c-9.484-0.815-14.617,0.68-23.333,2.448c-15.754,3.196-21.776,2.446-35.365,3.729 c-33.384,3.153-65.512-2.464-98.874-6.781c-29.338-3.796-57.204-9.313-85.84-15.041c-22.319-4.464-37.935-5.196-59.022-2.976 c-18.847,1.984-22.594,5.575-36.703,9.424c-14.018,3.824-16.938,5.822-31.247,7.936c-10.396,1.536-18.351,6.944-38.687,7.44 c-10.029,0.245-9.958-4.33-9.424-14.383C38.883,285.28,37.62,278.205,62,257">
      <title>The Secret Sauce of Collaboration</title>
    </path>
    <path class="hilite" d="M134.061,179.067c-8.821,0.211-20.875-2.887-29.138-6.313c-6.786-2.814-9.343-8.958-12.517-15.432 c-7.638-15.579-8.183-31.504,9.353-40.288c5.946-2.979,10.313-2.045,16.567-0.547c6.811,1.631,14.338,1.078,21.571,1.078 c12.31,0,24.62,0,36.93,0c13.935,0,27.032-0.992,40.549-0.992c9.759,0,19.517,0,29.275,0c6.799,0,12.752,1.008,18.772,1.563 c0.18,7.839,2.723,14.993,3.049,22.695c0.319,7.515-0.519,15.005,0.881,22.256c0.875,4.534,3.027,9.565,0.47,14.008 c-2.689,4.674-11.9,3.903-17.572,4.478c-11.076,1.122-22.634-0.271-33.735,0.36c-12.89,0.733-25.71,1.104-38.667,1.102 c-10.881-0.002-21.306-2.502-32.05-2.48c-3.431,0.007-12.333,1.514-14.732-0.992">
      <title>listening and open communication</title>
    </path>
    <path class="hilite" d="M171.297,28.286c11.121,0.477,17.593-2.368,28.83-2.48c8.167-0.082,16.339,0.021,24.507,0 c11.417-0.029,23.107,1.549,34.336,2.655c0.435,7.97,0.603,16.125,0.957,24.016c0.193,4.299,0.763,9.689-0.794,13.368 c12.46,2.954,25.813,2.74,38.407,2.108c16.688-0.836,35.091-0.106,51.757-1.832c25.313-2.621,27.78,1.632,42.21,0.879 c7.721-0.402,15.421,11.576,22.408,14.845c7.371,3.449,3.702,0.75,9.398,0.876c7.167,0.159,7.133,19.636-0.932,24.313 c-3.286,1.906-9.963,0.49-13.608,0.596c-5.403,0.159-10.598-0.95-15.814-0.488c-9.052,0.8-18.274,0.472-27.324,1.362 c-9.02,0.888-18.058,0.125-27.262,0.098c-10.254-0.03-20.508,0.038-30.762,0.002c-10.364-0.037-20.534,1.152-30.818-0.012 c-4.208-0.476-8.354,2.015-12.862,2.01c-5.641-0.006-9.945-0.426-15.243-0.622c-3.846-0.142-7.246,3.154-11.106,3.118 c-8.647-0.081-16.919,1.784-25.686,1.483c-16.335-0.56-24.4,1.521-37.563-1.06c-0.249-4.788,4.328-11.426,4.938-16.196 c1.37-10.721,1.37-10.721-0.11-18.06c-0.96-4.762-0.932-15.994,0.702-20.67c0.633-1.81-1.198-7.783-0.594-9.59 c0.646-1.933-9.859-3.17-9.946-5.206c-0.153-3.558-0.948-4.11-1.018-7.649c-0.063-3.226-1.092-5.7,2.001-7.369">
      <title>frame and set up the conversation up front</title>
    </path>
    <path class="hilite" d="M296.277,18.862c24.628-1.095,45.659-0.988,70.433-0.992c14.244-0.002,28.13,0.029,42.541,0.016 c19.315-0.018-23.232-0.005,12.874,0.469c3.529,0.046,7.609-0.002,11.672,0.448c-0.884,8.01-0.995,16.609-1.621,24.322 c-0.629,7.754-0.745,8.872-1.08,16.781c-23.998,1.296-47.515,1.402-71.252,2.612c-21.881,1.116-40.503,0.631-62.388-0.063 c-1.083-8.505-0.76-14.317-2.824-22.746c-0.626-2.56-4.178-10.059-3.86-12.789C291.102,24.064,294.369,20.574,296.277,18.862">
      <title>deliberating vs. consensus</title>
    </path>
    <path class="hilite" d="M299.716,119.05c8.919,0,16.372-3.286,24.799-3.472c5.305-0.117,10.626,0.005,15.932,0 c11.811-0.01,24.661,3.572,36.429,1.496c7.66-1.352,15.117,0.001,23.514-0.008c6.199-0.007,14.186-0.15,20.243,0.994 c9.454,1.785,12.177,10.817,12.998,19.341c0.884,9.188-0.32,18.11,1.006,27.31c0.937,6.5-0.552,16.272,2.056,22.202 c12.377,0.765,24.714-0.452,37.002-0.41c6.349,0.022,11.058,1.294,16.974,2.37c6.191,1.125,12.718-1.175,18.771,1.191 c-0.031,5.049,2.504,9.558,3.659,14.162c1.464,5.841,1.967,11.461,2.259,17.502c0.437,9.029,0.115,18.097-2.989,26.154 c-3.633,9.429-11.312,6.187-20.322,7.067c-4.716,0.461-9.372,0.987-14.301,1.488c-3.571,0.363-11.474,0.069-14.887,1.453 c-0.58,0.234-2.254,1.645-2.895,2.117c-0.871,4.187-5.902,6.36-8.862,9.365c-2.324,2.36-4.031,6.057-6.668,8.27 c-3.133,2.629-19.84,15.136-21.217,7.561c-0.553-3.042,6.178-10.146,7.424-13.364c1.353-3.494,4.601-10.224,3.968-13.938 c-1.138-6.675-25.125-1.171-32.721-3.46c-3.846-1.159-7.355-1.677-9.917-4.341c-1.499-1.557-4.883-6.229-6.075-8.418 c-2.609-4.789-0.896-6.269-6.85-7.922c-6.047-1.679-11.611-0.196-17.707-0.634c-14.252-1.023-24.9-9.002-33.365-19.738 c-6.294-7.983-13.797-5.243-21.8-9.896c-4.242-2.466-5.014-6.888-6.447-11.53c-1.294-4.193-0.5-7.956-1.079-12.403 c-0.882-6.786-3.268-12.239-3.395-19.27c-0.155-8.532-0.443-18.538,2.366-26.357c1.536-4.275,2.867-9.635,3.088-14.383">
      <title>talking does not equal communication</title>
    </path>
    <path class="hilite" d="M513.484,28.781c4.944-7.042,11.135-14.297,19.343-18.005c3.972-1.794,7.805-0.755,11.931-1.7 c4.79-1.097,7.705-2.613,12.878-2.614c17.385-0.003,39.23,2.797,43.214,21.738c6.76,2.451,20.352-2.37,24.352,4.925 c4.138,7.546-2.216,23.308-5.231,29.89c-1.773,3.871-3.879,7.574-7.18,10.377c-3.718,3.158-11.759,7.292-16.481,8.979 c-4.365,1.56-10.446,1.375-15.008,2.346c-5.697,1.212-11.012,1.598-17.018,1.598c-13.441,0-26.506-1.488-39.963-1.488 c-6.606,0-14.647,0.889-20.719-1.563c-5.658-2.285-10.064-6.808-14.048-10.85c-4.404-4.469-7.543-8.438-9.298-14.374 c-1.138-3.848-2.576-8.595-1.118-12.385c3.384-8.795,18.29-13.993,26.919-15.908c2.465-0.547,5.02-0.942,7.428-1.462">
      <title>trust</title>
    </path>
    <path class="hilite" d="M437.599,86.811c7.152-1.041,14.573-3.1,21.713-2.976c4.837,0.084,8.183,1.893,13.116,2.095 c17.469,0.715,35.239,0.645,52.737,1.375c9.648,0.403,20.796-0.061,30.454-1.004c11.617-1.135,23.531-0.079,35.262-0.481 c8.769-0.301,17.23-1.488,26.139-1.488c10.061,0,22.153,2.079,31.83-0.447c1.565,6.198,0.459,13.698,0.536,20.153 c0.109,9.179,0.99,18.15,0.99,27.409c0,19.343-1.034,38.702-0.992,57.896c0.015,6.824,0,13.649,0,20.473 c0,2.623,1.452,11.384-0.329,13.427c-1.417,1.625-13.992,0.974-17.365,1.48c-4.829,0.725-9.269,1.686-14.132,1.957 c-25.365,1.411-49.728-0.492-74.74-0.496c-2.429,0-6.222,0.723-8.292-0.877c-3.158-2.441-3.205-11.528-4.059-15.9 c-0.666-3.408-1.568-5.899-1.608-9.532c-0.042-3.834,1.875-11.913-0.376-14.889c-3.617-4.781-17.309-0.285-22.823,0.65 c-5.431,0.92-10.738-0.135-16.479-0.122c-8.48,0.019-16.96,0-25.44,0c-6.336,0-14.612-1.266-20.576,0.397 c-2.442-9.331-3.85-17.437-5.59-27.194c-1.5-8.417-3.29-16.871-4.949-25.28c-0.985-4.993-0.205-10.687-0.704-15.931 c-0.351-3.694-1.319-7.849-0.771-11.857c0.789-5.774,1.167-13.866,4.96-18.34">
      <title>work to achieve collaborative consensus: stop, summarize/write down to ensure common language and understanding</title>
    </path>
    <path class="hilite" d="M514.493,252.96c0-10.147,2.237-12.337,11.903-13.392c17.24-1.88,27.899-0.64,30.751-0.498 c12.005,0.6,24.187,0.002,36.207,0.002c3.263,0,10.852-1.428,13.777,0.112c3.459,1.821,3.53,8.625,4.09,12.288 c0.888,5.812,0.431,11.989,0.988,17.855c0.393,4.128-1.87,7.592-2.016,11.903c-0.235,6.903-2.034,10.688-7.511,14.781 c-4.037,3.017-7.366,6.758-11.311,10.379c-9.142,8.392-18.296,15.395-30.247,16.005c-7.194,0.367-13.929-0.533-20.356-3.348 c-4.872-2.134-8.207-7.426-12.882-10.415c-8.201-5.243-11.977-10.842-15.651-19.466c-1.169-2.744-2.021-6.021-4.649-7.961 c-2.855-2.109-7.648-2.249-10.563-4.799c-4.841-4.235-7.365-13.839-2.48-18.623c4.122-4.036,13.334-5.912,18.958-5.32">
      <title>healthy friction</title>
    </path>
    <path class="hilite" d="M612.187,276.281c8.118,0,19.158,0.675,24.922,6.931c1.089,1.182,1.732,3.992,2.951,4.874 c1.936,1.4,4.519,1.013,6.845,1.601c4.588,1.159,8.666,3.936,12.933,5.83c4.614,2.048,4.856,4.46,7.859,7.562 c3.931,4.062,8.771,1.307,14.423,2.454c7.66,1.555,14.221,17.14,23.78,10.327c1.6-1.14,3.183-4.759,3.924-6.097 c1.031-1.86,2.517-4.618,4.017-6.08c3.326-3.242,9.437-5.313,13.873-6.072c4.727-0.809,9.412-2.479,13.926-2.976 c6.275-0.692,7.96,0.546,9.048,6.94c0.712,4.188-0.113,8.76,0.883,12.897c1.02,4.235,2.473,6.744,2.467,11.408 c-0.006,4.683,0.803,10.868-3.944,13.39c-4.746,2.521-13.475,0.933-18.87,0.994c-5.197,0.059-5.203,0.5-8.435,3.848 c-1.519,1.573-2.338,3.126-4.453,4.1c-2.713,1.25-6.046-0.202-8.839,1.094c-8.064,3.741-1.628,15.22-8.06,20.629 c-3.816,3.208-12.12,1.577-16.823,1.577c-8.132,0-14.962,0.874-22.976,2.009c-14.299,2.028-28.59-1.183-42.426,1.547 c-8.934,10.595-22.614,13.436-36.57,14.295c-6.505,0.4-13.044-0.193-19.161-1.014c-4.701-0.632-12.423,0.592-16.185-2.043 c-1.845-3.996-3.074-6.31-3.061-11.323c0.01-3.846,0.08-7.586-1.489-10.884c-3.895-8.183-8.915-15.087-9.422-24.825 c-0.432-8.288,1.185-15.407,10.912-15.377c7.693,0.024,16.211,0.958,24.414,0.992c8.751,0.035,16.719-3.071,25.681-3.46 c4.832-0.21,20.591-2.001,21.709-8.579c0.439-2.586-1.709-5.039-3.444-6.808c-2.955-3.011-4.136-4.042-4.377-8.432 c-0.236-4.29,1.085-6.102,2.106-9.92c0.908-3.396-1.061-9.079,1.862-10.912">
      <title>competition and collaboration, hand-in-hand</title>
    </path>


    <path class="hilite" d="M657.326,29.777c16.358-0.043,24.644,0.792,40.626,0.038c6.539-0.309,20.193,0.417,26.682-0.573 c7.455-1.137,14.45-1.377,21.994-1.871c11.049-0.724,23.022-6.927,34.076-6.498c12.203,0.473,11.467,7.476,14.158,17.449 c2.583,9.578-0.891,12.149-3.815,28.567c-1.226,6.883-0.529,13.91,0.677,20.804c1.472,8.411,15.33,11.832,13.96,20.405 c-0.753,4.717-2.071,8.86-6.38,12.572c-3.107,2.677-8.011,6.815-11.731,6.815c-7.074,0-14.149,0-21.223,0 c-15.75,0-31.419,0.365-47.183,0.496c-10.213,0.085-19.539-4.007-29.744-5.08c-3.321-0.349-9.815,0.839-12.814-0.355 c-10.761-4.286-4.896-22.696-6.352-31.702c-1.746-10.804-0.73-15.698-3.817-25.906c-1.244-4.115-16.064-5.402-15.982-20.345 c0.016-2.932,4.503-5.664,5.861-8.395c0.967-1.944,1.374-4.109,2-6.422">
      <title>shared problem statement, a common goal!</title>
    </path>
    <path class="hilite" d="M661.79,133.437c15.483,0.036,30.229,4.938,45.658,4.464c10.52-0.323,21.097-1.362,31.604-2.478 c21.74-2.311,43.999,1.564,65.932,1.486c7.315-0.026,10.574,1.791,16.175,6.621c2.703,2.331,6.781,4.136,8.917,6.854 c3.077,3.915,3.348,12.461,4.826,17.328c2.22,7.314,1.076,15.25,1.573,22.897c0.452,6.932,5.073,13.53,1.516,19.706 c-4.924,8.548-0.162,10.101-24.445,12.919c-6.097,0.708-8.033-4.304-12.337-8.469c-4.671-4.519-11.383-7.104-18.41-9.049 c-17.744-4.913-37.836-1.623-56.109-2.344c-10.698-0.422-21.651,2.197-32.211,0.508c-5.058-0.809-11.162-2.199-14.726-6.433 c-4.076-4.842-5.984-11.959-10.026-17.004c-4.528-5.651-7.492-12.19-10.417-18.723c-3.798-8.479-8.817-19.562,1.901-23.904 c0.434-1.613,0.485-1.005,1.488-1.984c-0.019-0.356,0.033-0.976,0.158-1.33c0.644-0.108,1.253-0.04,1.911-0.073">
      <title>know when to finish/when to stop</title>
    </path>
    <path class="hilite" d="M627.808,382.2c6.31,0,12.526-0.678,18.833-0.679 c2.642,0,5.563,0.456,8.155,0.032c6.334-1.037,12.419-0.828,18.81-0.846c3.39-0.009,6.696,0.547,10.081,0.542 c4.007-0.006,8.01-0.132,12.02-0.135c3.141-0.002,5.551,0.748,8.556,1.33c2.137,0.414,2.659,0.999,3.871,2.743 c0.996,1.434,1.119,1.689,1.273,3.508c0.143,1.688,0.101,5.82,1.517,6.819c0.36,0.254,0.954,0.102,1.348,0.142 c1.653,0.164,3.302,0.336,4.929,0.688c2.055,0.446,3.847,1.125,5.968,1.208c2.387,0.094,4.319-0.332,6.569-0.563 c2.79-0.287,4.68,3.047,4.653,5.584c-0.028,2.695-0.383,5.38-0.243,8.119c0.079,1.556-0.011,3.115,0.785,4.512 c0.759,1.333,1.874,1.972,2.963,2.981c1.359,1.26,2.194,2.883,3.481,4.16c3.17,3.147,6.537,6.022,10.163,8.603 c0.623,0.444,1.372,1.442,2.004,1.75c0.562,0.274,1.363,0.13,2.033,0.239c1.606,0.263,3.191,0.653,4.571,1.503 c0.905,0.558,1.668,1.029,2.247,1.972c0.651,1.06,0.532,2.07,0.638,3.431c0.177,2.262,0.005,4.282-0.274,6.518 c-0.328,2.623,0.069,5.285-0.401,7.858c-0.257,1.404-0.466,2.801-0.811,4.184c-0.303,1.215-0.209,2.967-0.682,4.134 c-0.554,1.367-2.479,2.04-3.936,2.354c-3.258,0.703-7.18,0.158-10.466,0.139c-5.429-0.033-10.855-0.706-16.277-0.834 c-4.326-0.103-8.601,0.162-12.892-0.412c-3.566-0.476-7.283-0.503-10.872-0.725c-2.644-0.163-5.258-0.216-7.912-0.21 c-6.062,0.014-11.917-1.882-17.962-1.905c-6.044-0.023-11.645,0.705-17.637,0.298c-3.118-0.212-6.286-0.283-9.411-0.294 c-2.747-0.01-4.746,0.834-7.312,1.473c-2.544,0.633-6.873,0.674-9.315-0.245c-1.142-0.43-1.642-1.026-2.398-1.761 c-0.985-0.957-1.153-1.322-1.501-2.621c-0.443-1.658-1.31-2.641-2.143-4.169c-1.593-2.921-2.121-4.983-2.507-8.322 c-0.106-0.921-0.471-1.433-0.692-2.243c-0.495-1.812-0.578-4.107-0.92-6.032c-0.557-3.138-0.564-6.385-0.089-9.462 c0.367-2.372-0.174-5.372-0.173-7.988c0.001-3.112,0.194-5.26-1.602-7.934c-1.052-1.567-2.811-2.58-4.586-3.199 c-1.669-0.583-3.323-1.274-4.69-2.439c-1.205-1.027-2.371-2.911-3.737-4.183c-1.387-1.291-2.208-2.027-2.471-4.031 c-0.25-1.904-0.696-3.737-0.991-5.65c-0.22-1.425-0.353-2.936-0.39-4.377c-0.052-2.016,0.577-2.445,2.379-3.258 c2.252-1.017,4.99-1.146,7.405-1.726c3.368-0.808,6.719-0.716,10.176-0.716">
      <title>sidestep proprietary interest and stale thinking!</title>
    </path>
    <path class="hilite" d="M815.546,21.345c-0.398,8.048,2.611,16.359,3.605,24.301c0.753,6.02,0.967,10.848,3.337,16.503 c1.939,4.628,2.529,5.853,7.827,6.325c6.475,0.577,11.536-1.439,17.629-3.137c9.758-2.719,27.462-3.266,37.472-0.281 c3.662,1.092,7.66,4.887,11.108,5.499c2.385,0.422,5.805-0.532,8.296-0.602c6.843-0.192,11.66-0.262,17.833-3.224 c4.203-2.016,8.729-4.259,12.41-7.156c2.072-1.63,3.593-4.032,5.656-5.629c3.398-2.63,8.163-3.812,10.806-7.412 c4.441-6.049,4.333-17.148-1.122-22.333c-8.225-7.815-20.102-4.473-30.916-5.19c-14.562-0.966-27.798-1.843-42.34-0.632 c-11.63,0.969-14.979-0.727-28.547,0.769c-6.377,0.703-17.546-0.333-24.012,1.317c-2.798,0.714-5.27,1.838-8.051,2.37">
      <title>connect to impact</title>
    </path>
    <path class="hilite" d="M834.394,83.838c10.242-0.222,20.845-1.488,31.367-1.488c4.406,0,8.86-0.203,13.26,0.002 c7.243,0.337,14.167,3.073,21.483,3.482c15.341,0.857,20.342-8.61,30.025-16.491c4.26-3.467,7.607-8.292,12.62-10.688 c5.582-2.667,12.482-2.818,18.569-3.113c18.663-0.906,23.057,8.113,27.012,24.703c2.307,9.68,1.897,19.315,1.897,29.372 c0,8.398-0.294,13.241-5.952,20.022c-4.904,5.879-13.44,8.078-20.859,8.784c-14.008,1.333-28.873-0.027-42.978-0.025 c-16.367,0.002-32.778,2.199-49.269,1.017c-8.472-0.607-16.648-2.612-24.951-3.111c-4.969-0.299-4.952-0.749-8.137-5.613 c-2.199-3.356,2.803-10.408,1.361-14.09c-1.691-4.318-7.969-4.847-8.888-9.123c-1.26-5.86-6.159-13.674-2.648-19.753 c1.936-3.352,4.275-2.858,8.07-2.893">
      <title>motivation above and beyond</title>
    </path>
    <path class="hilite" d="M840.841,155.26c0,5.384-0.824,11.447,0.003,16.737c1.264,8.083,7.583,12.508,13.028,18.367 c2.675,2.878,0.731,7.302,3.51,9.183c3.706,2.509,10.271,1.878,14.771,3.866c6.571,2.903,13.52,2.438,20.566,3.059 c12.189,1.074,24.432,1.735,36.598,2.85c10.715,0.981,21.729-1.372,32.389-2.47c6.292-0.648,15.025-0.246,20.982-2.59 c4.733-1.862,4.048-4.42,4.481-9.163c0.52-5.668,0.499-10.446-1.02-16.044c-1.643-6.06-2.878-22.493-9.093-25.474 c-3.202-1.536-11.171,0.206-14.889-0.28c-4.913-0.643-9.801,1.654-14.739,1.117c-10.756-1.17-21.769-1.958-32.669-1.171 c-8.943,0.646-17.495-0.123-26.633-0.418c-8.307-0.269-16.549-3.46-24.881-4.04c-4.178-0.291-8.832-0.315-12.724,1.116 c-3.771,1.387-5.794,4.518-8.689,6.35">
      <title>fail fast and stay focused</title>
    </path>
    <path class="hilite" d="M831.914,220.73c16.172-0.973,32.105-0.992,48.522-0.992c6.521,0,11.693,0.164,17.874,1.909 c3.268,0.922,6.522,1.083,10.062,1.067c6.395-0.027,12.862-0.254,19.255,0c9.14,0.363,5.727,5.844,10.952,11.466 c4.984,5.363,13.489,4.071,19.921,5.372c4.008,0.811,8.924,3.004,11.309,6.241c2.22,3.014,1.637,7.844,3.832,10.695 c2.654,3.445,5.395,2.433,10.044,2.433c7.613,0,12.173-0.756,12.896,7.402c0.721,8.136,0.311,14.474-6.814,19.402 c-4.013,2.775-10.534,2.078-12.683,5.405c-2.097,3.247,0.134,7.578,1.518,10.312c1.442,2.849,3.552,5.091,4.476,8.214 c1.915,6.471,0.612,15.222,0.597,21.711c-0.025,10.784,1.718,22.074-1.479,32.663c-1.563,5.18-3.092,5.551-7.393,7.484 c-8.359,3.757-14.733,6.194-23.848,7.312c-18.431,2.26-42.495,3.543-57.081-9.824c-8.295-7.602-13.302-13.723-15.436-24.342 c-0.832-4.141-1.907-9.803-0.435-13.955c1.139-3.21,0.777-4.832,1.623-8.189c0.584-2.32-1.241-7.498-2.73-9.469 c-1.192-1.579,1.117-0.33-0.57-1.596c-3.265-2.449,0.961-4.569-0.74-8.426c-2.921-6.625,10.054-14.175,3.712-18.818 c-3.039-2.226-22.745-3.266-26.577-2.36c-1.252,0.295-4.495-0.174-5.632,0.427c-5.057,2.674-1.424,0.207-6.369-3.985 c-8.325-7.056-9.167-16.82-11.173-26.653c-1.805-8.85-13.995-22.329-3.608-29.529c2.063-1.43,3.958-1.62,6.472-1.378">
      <title>encourage early adopters through hands-on play</title>
    </path>

    <path class="hilite" d="M665.759,193.946c3.811-0.434,8.335,4.424,11.685,6.075c4.296,2.117,7.935,2.954,12.618,3.845 c10.251,1.951,20.464,2.978,31.222,3.497c12.698,0.614,25.285,0.967,38.216,0.967c6.277,0,13.623-1.032,19.774-0.025 c5.831,0.954,10.93,4.075,16.059,7.353c3.345,2.138,7.547,3.643,10.801,5.928c3.468,2.435,6.078,6.658,8.918,10.154 c4.56,5.612,11.699,16.33,9.233,23.646c-9.647,0.274-7.722,8.301-8.243,14.968c-0.393,5.023-1.822,14.378-6.408,17.241 c-3.066,1.914-8.817,0.511-12.364,0.654c-0.998,3.926-0.953,7.499-2.671,11.317c-9.164-0.103-16.927,1.443-25.563-1.875 c-7.206-2.769-14.51-5.024-21.824-7.371c-20.979-6.732-44.569-0.432-66.089-5.125c-8.138-1.774-4.561-8.023-9.288-13.375 c-4.598-5.207-16.034-4.37-22.837-4.961c-10.967-0.955-20.267-13.996-13.494-24.183c1.601-2.407,4.415-4.216,6.104-6.635 c2.479-3.549,3.706-7.859,6.659-11.345c3.468-4.093,6.423-6.271,8.054-11.516c2.561-8.242-0.023-21.436,12.415-18.737">
      <title>flexibility and diversity</title>
    </path>
    <path class="hilite" d="M759.028,316.455c9.653,0.415,18.448-0.213,28.138-1.625c12.929-1.885,24.25-0.867,37.173-0.347 c11.311,0.455,11.311,0.455,33.45,2.964c3.479,0.395,5.91,0.637,9.13,1.464c2.647,0.68,6.38,1.938,9.066,2.075 c1.354,5.577,2.435,9.112,0.679,14.33c-2.106,6.257-5.347,10.526-6.562,17.323c-0.768,4.297-4.212,10.131-8.446,12.803 c-1.793,1.132-3.429,0.434-5.334,2.131c-1.117,0.994,1.682,1.972-2.583,6.922c-6.063,7.037-11.266,5.361-18.462,6.428 c-5.412,0.803-7.976,8.077-12.874,10.908c-9.123,5.274-20.984-0.461-31.062,0.007c-5.46,0.254-12.147,0.13-16.11-3.985 c-3.172-3.295-4.262-5.52-5.92-9.499c-1.638-3.927-4.548-7.933-5.756-11.938c-2.37-7.855-4.897-17.507-8.356-24.688 c-2.269-4.71-4.238-11.502-5.261-16.361c-0.962-4.574,8.777-11.309,12.562-8.416">
      <title>ownership of the issue – closest to the client</title>
    </path>
    <path class="hilite" d="M791.246,405.245c7.115,0,13.624,2.208,20.407,2.009c7.637-0.223,14.639-1.862,22.384-1.488 c6.539,0.316,13.48,1.726,16.788-4.935c1.932-3.892-0.958-8.509,0.809-12.09c2.028-4.11,6.937-4.538,11.034-4.336 c5.182,0.255,6.388-1.833,10.306,0.993c7.598,5.481,17.015,4.896,25.405,1.495c7.925-3.213,9.589-4.567,18.847-4.078 c4.683,0.248,2.403-4.278,6.032-0.831c1.814,1.724-0.301,10.24,1.66,11.732c3.351,2.549,0.341,2.791,3.477,5.193 c2.122,1.625,9.284,4.304,11.058,6.336c2.23,2.556,7.721,4.268,9.467,7.277c1.955,3.37,9.066,6.89,10.47,10.501 c1.243,3.202,3.56,5.123,5.454,7.601c7.803,10.204,12.768,23.042,12.783,35.339c0.014,10.775-1.423,14.97-2.396,22.64 c-0.923,7.276-4.849,16.903-7.543,23.761c-2.251,5.728-3.087,10.768-7.187,15.645c-4.492,5.345-11.812,10.246-17.768,13.793 c-3.522,2.099-6.691,1.054-10.107,2.795c-6.801,3.466-17.612,2.955-25.096,2.955c-10.341,0-16.539-1.295-24.301-8.457 c-4.92-4.54-6.037-3.146-10.711-7.926c-3.095-3.166-6.838-10.32-9.488-13.836c-3.834-5.086-4.751-10.964-6.277-17.219 c-1.247-5.113-1.205-17.604-5.827-20.552c-3.121-1.99-13.549,5.493-17.114,4.509c-3.943-1.089-9.005-0.669-13.09-0.459 c-5.913,0.304-9.206-0.889-15.161-2.42c-5.273-1.356-11.513,0.183-14.81-4.363c-3.494-4.819-1.437-10.285-0.993-15.517 c0.536-6.312,3.323-10.928,0.158-16.422c-3.748-6.505-2.657-9.177-9.411-12.879c-11.083-4.446-17.574-19.29-10.982-26.738 c3.533-3.992,20.976-3.39,25.194-0.027">
      <title>default towards open</title>
    </path>

    <a xlink:href="http://dpict.info/" target="_blank">
      <path id="dpict" class="hilite" d="M923.375,651.567c0-2.101-0.156-4.105-0.271-6.121 c-0.07-1.221-0.105-2.599,0-3.821c0.126-1.456,1.007-2.279,2.044-3.343c2.015-2.066,5.212-2.671,7.043-0.109 c1.314,1.838,1.785,3.912,1.775,6.183c-0.014,3.221-0.182,3.992,2.674,4.756c2.025,0.542,3.814,0.181,5.787-0.562 c2.087-0.786,3.965-3.511,6.025-3.635c1.845-0.111,2.843,1.978,3.979,3.123c1.832,1.847,3.11,1.437,5.441,0.411 c1.787-0.786,2.016-3.292,3.118-4.729c1.897-2.474,5.896-3.828,8.604-1.826c2.032,1.503,1.522,5.187,3.338,6.015 c1.372,0.626,1.44,0.14,2.941,0.258c6.273,0.494,5.576,6.588,5.076,11.418c-0.271,2.62,0.333,5.896-0.816,8.302 c-1.532,3.207-4.159,3.046-7.065,3.742c-2.877,0.689-5.833,0.345-8.805,0.471c-3.925,0.166-7.899,0.676-11.841,0.787 c-0.777,0.021-2.648-0.295-3.385,0.123c-0.739,0.42-1.091,1.575-1.798,2.186c-2.033,1.756-4.346,3.352-7.059,3.56 c-0.985,0.075-3.122,0.531-4.042-0.018c-0.893-0.531-1.379-1.987-2.198-2.728c-1.838-1.661-3.283-3.614-5.786-4.25 c-1.898-0.482-2.991-0.197-4.941,0.063c-1.428,0.19-2.688,1.06-5.544-1.966c-4.477-1.726-3.075-0.83-5.193-5.308 c-0.748-1.581-0.477-1.683,0.379-3.834c0.546-1.374,2.319-3.697,2.988-5.019c0.944-1.866,1.771-3.665,3.615-4.026 c1.27-0.249,2.254-0.734,3.51-0.238">
        <title>dpict. graphical scribing and facilitation</title>
      </path>
    </a>  

  </g>


  <use id="hilite-magnifier" xlink:href="#source-image" clip-path="url(#hilite-clip)"/>
</svg>

