<svg  xmlns="http://www.w3.org/2000/svg"
  xmlns:xlink="http://www.w3.org/1999/xlink"
  width="100%" height="100%" viewBox="0 0 1000 442"
  onload="initEyescribe()">     
  
  <title>Blockchain Identity</title>

  <script xlink:href="eyelight.js"/>

  <defs>
    <image id="source-image" width="1000" height="442" xlink:href="04_Identity_web.jpg"/>


    <clipPath id="hilite-clip">
      <use id="hilite-clip-use" xlink:href="#"/>
    </clipPath>

    <mask id="mask">
      <rect id="image-mask" width="100%" height="100%" fill="white" opacity="1"/>
    </mask> 

    <mask id="hilite-mask">
      <rect width="100%" height="100%" fill="white" opacity="0"/>
    </mask> 

  </defs>

  <style type="text/css">
    #hilites {
      fill: none;
      stroke: none;
    }

    .hilite {
      pointer-events: all;      
    }

    .test {
      fill: yellow;
      stroke: red;
      stroke-width: 2px;
      fill-opacity: 0.5;
    }

    #hilite-magnifier {
      pointer-events: none;
    }

    #hilite-masker {
      fill: white;
      stroke: white;
      pointer-events: none;
    }
  </style>
  <use xlink:href="#source-image" mask="url(#mask)" />
  <use id="hilite-masker" xlink:href="#"  pointer-events="none"/>

  <g id="hilites">
    <path class="hilite" d="M23.333,71.333c8.785-7.008,19.543-15.177,27.35-19.168c11.625-5.943,18.5-8.464,29.82-11.665 c14.808-4.186,24.829-5.833,36.828-6.5c11.889-0.662,22.153-2.014,34.624-2c15.149,0.017,25.729-4.057,39.394-6.503 c7.457-1.334,7.482-2.33,11.135,4.503c2.52,4.714,5.22,2.687,6.479,7.704c0.59,2.354,0.587,9.593,0.37,12.296 c-0.372,4.625-1.066,4.014-4.035,5.965c-3.5,2.302-8.829,2.103-13.15,3.517c-11.327,3.705-19.523,3.126-34.961,4.852 c-12.602,1.408-25.207,1.108-37.854,2.667c-12.241,1.508-24.42,3.086-35.013,7.497C71.496,79.837,57.067,87.34,46.052,95.52 c-4.398,3.266-7.376,11.096-12.882,9.977c-3.526-0.716-9.865-6.427-9.684-10.312c0.114-2.429,4.322-3.124,5.064-5.405 c-0.098,0.3-2.355-6.187-2.002-7.667C22.276,81.326,21.753,73.562,24,72">
      <title>Identity</title>
    </path>
    <path class="hilite" d="M64.805,94.386c4.415-0.23,8.215-1.783,12.534-2.042c4.949-0.297,10.072,0.022,15.01-0.506 c11.233-1.202,22.408-3.226,33.616-4.709c4.391-0.581,9.496-0.689,13.972-0.188c1.679,0.188,3.135,0.896,4.778,1.094 c2.014,0.242,4.401-0.163,6.345-0.68c5.59-1.485,10.89-5.662,16.797-5.68c2.292-0.007,4.032,0.835,5.8,1.854 c2.753,1.587,4.755,4.331,5.095,7.518c0.389,3.651-0.667,6.996-0.68,10.432c-0.023,6.292,7.852,3.659,11.769,2.946 c4.229-0.771,12.409-3.609,15.924-0.731c2.279,1.865,1.927,4.259,2.707,6.792c0.867,2.815,1.832,4.236,1.832,7.286 c0,1.638,0.11,3.315,0.012,4.948c-0.283,4.714,0.962,12.208-1.422,16.834c-1.361,2.64-4.159,2.491-6.496,3.402 c-1.819,0.708-2.951,2.189-4.556,3.134c-2.21,1.301-5.342,1.675-7.099,3.871c-2.429,3.037-0.541,7.438-4.134,9.066 c-1.789,0.81-4.22,0.966-6.16,1.245c-3.04,0.437-5.858,1.595-8.728,2.606c-4.567,1.61-8.111,3.79-11.364,7.502 c-1.795,2.049-2.905,3.441-5.494,4.315c-6.406,2.162-12.16-1.244-18.166-3.231c-4.167-1.379-8.037-1.029-12.342-1.037 c-4.7-0.009-9.737-0.127-14.44,0.266c-10.379,0.866-20.169,0.721-30.47,0.642c-8.148-0.062-16.319-0.464-24.448,0.227 c-2.752,0.234-6.017,0.622-8.809,0.227c-1.688-0.239-1.86-0.85-3.305-1.429c-1.801-0.72-2.673,0.159-3.935-1.834 c-1.66-2.623-1.76-13.039-5.501-12.859c-2.261-4.296-4.137-10.635-5.421-15.545c-0.487-1.863-0.543-3.668-0.449-5.637 c0.125-2.607,0.653-6.169,1.887-8.439c0.607-1.119,2.063-1.927,2.221-3.23c2.961-1.402,0.981-5.811,1.839-8.231 c0.487-1.375,2.484-2.823,3.588-3.45c5.395-3.062,11.528-1.713,17.438-1.993c4.131-0.195,8.129-5.306,8.891-9.068 c0.431-2.127-0.359-2.639,1.312-4.16c1.016-0.924,2.55-1.644,3.682-2.435">
      <title>
        * Open system
        * User sovereign identity
        * Memorable identifiers
        * Indexible registry
        * Semantic data
      </title>
    </path>
    <path class="hilite" d="M110.5,184c0.29,9.372,0.5,19.056,0.5,28.223c0,11.915-2.031,31.641-2,42.64 c0.019,6.493-4.064,4.849-4.389,11.249c-0.186,3.661,1.217,8.757,2.865,11.913c2.659,5.095,10.919,2.476,15.534,2.476 c6.05,0,11.456-0.433,17.366-1.109c15.975-1.83,32.521,1.016,48.125,3.109c3.238,0.435,9.261,1.943,12.498,0.998 c4.403-1.285,3.255-8.433,8.502-8.998c11.301-1.216,22.056-2.002,33.5-2c6.114,0.001,18.781-0.26,24.387,1.889 c6.326,2.425,2.533,7.255,9.748,7.6c5.91,0.282,25.328,3.594,27.863-1.964c1.512-3.315-0.851-11.427-0.51-15.034 c0.551-5.827-0.494-10.723-0.488-16.625c0.013-14.228-1-28.015-1-42.313c0-5.112,0.229-10.449-0.002-15.552 c-0.835-18.483,1.094-14.43-3.861-14.611c-6.1-0.223-10.112,0.091-15.562-0.464c0.198-2.217-0.349-4.43-1.149-6.351 c-3.547-0.794-5.326,2.745-8.412,3.95c-4.567,1.785-7.587,2.118-12.159,2.184c-12.502,0.181-13.496,1.181-27.353,0.292 c-7.637-0.49-14.628,0.866-22.028,2.998c-4.343,1.252-19.203,4.307-20.56-1.913c-4.647-1.424-8.047-0.766-12.403-0.085 c-8.67,1.355-18.082,2.592-26.875,3.002c-8.42,0.392-16.636,3.242-25.208,3.498c-6.073,0.181-11.455,1.139-17.429,0.5">
      <title>Problems of: data; privacy; trust (technical vs. social)</title>
    </path>

    <path class="hilite" d="M198.666,230.667c11.297,0,22.346-1.665,33.818-1.667c11.706-0.001,19.553-1.19,35.182-1.667 c3.587-0.109,5.913,0.32,8.981-0.767c2.256-0.799,4.625-0.636,7.019-1.223c5.055-1.24,10.664-1.562,15.95-1.293 c0.234,4.604-0.133,9.296,0.101,13.899c2.295,0.363,6.771-0.316,8.858-1.024c2.554-0.866,4.732-3.42,6.684-5.333 c2.345-2.298,3.25-4.276,4.732-6.936c1.36-2.44,3.495-3.995,4.665-6.315c1.254-2.49,1.136-4.982,3.004-6.731 c2.707-2.534,6.521-3.77,10.007-3.943c2.935-0.146,5.663,0.409,8.302,0.675c4.692,0.472,9.206-0.959,13.697-1.358 c4.673-0.416,9.603,0.013,14.29,0.017c5.543,0.005,10.509-1.283,16.036-1c3.645,0.187,5.893,0.723,6.674,4.333 c0.721,3.329,0.664,10.052-0.242,13.357c7.546-0.152,15.181,0.134,22.525,0.434c0.349,7.039,1.056,14.118,0.667,21.159 c-2.867,0.185-5.394,0.109-7.909,1.441c-0.206,4.085-0.892,6.307-3.399,9.474c-2.877,3.635-5.167,7.296-4.59,12.084 c1.197-0.06,4.782-0.207,5.547,0.778c0.87,1.119,0.478,6.317,0.458,7.883c3.346,2.744-0.819,5.981-3.389,6.741 c-2.662,0.787-5.061,1.584-7.61,2.699c-0.282,5.357-0.551,9.441-2.067,14.605c-0.835,2.843-0.881,6.545-3.807,7.937 c-3.66,1.741-9.794,0.552-13.783,0.741c-6.958,0.329-13.96,0.333-20.965,0.333c-4.451,0-9.18,0.438-13.436-0.648 c-1.445-0.369-3.811-1.028-4.942-1.946c-2.705-2.193-1.546-4.816-1.725-8.345c-0.2-3.969-1.01-7.739-1.341-11.669 c-0.11-1.308,0.232-2.725,0.004-4.018c-0.715-4.051-1.286-2.167-4.319-3.024c-4.086-1.155-2.869-3.169-3.669-6.684 c-0.593-2.603-2.024-5.184-3.425-7.25c-2.591-3.824-6.282-7.763-9.525-11.056c-2.695-2.736-5.641-6.063-9.458-6.368 c-3.135-0.25-5.313,0.521-8.6,1.008c-3.498,0.518-9.005,2.101-12.667,2.406c-11.56,0.965-21.548,2.948-34.41,3.602 c-11.54,0.586-22.969,0.633-34.45,1.658c-3.981,0.355-8.008,0.079-12.131-0.316c-1.813-0.174-3.49,0.565-5.285-0.407 c-0.357-5.495-0.826-10.471-1.391-15.85c-0.273-2.606-2.232-9.11,0.666-9.759">
      <title>Privacy: Never allow raw data to leave repository! Data encrypted at all times! Always return aggregate answers!</title>
    </path>

    <polygon class="hilite" points="244.36,283.67 293.06,282.77 293.06,282.77 315.60,317.03 315.60,317.03 315.60,336.87 315.60,336.87 352.57,337.77 352.57,337.77 353.47,365.72 353.47,365.72 369.70,367.53 369.70,367.53 368.80,389.17 368.80,389.17 314.70,395.48 314.70,395.48 245.27,396.38 245.27,396.38" id="add-meaningful-title">
    <title>
* quality
* security
* freedom/independence
* source
* privacy
* binding to real world
* attributes
* provenance/trust
* availability/persistance
* auditability
    </title>
    </polygon>

    <path class="hilite" data-zoom="2" d="M222.667,84.335c0-7.137-0.431-14.79,0.333-21.926c0.513-4.791,5.295-11.271,9.4-13.684 c5.153-3.03,11.415-3.835,17.267-4.057c6.872-0.26,10.589,3.267,13.676,7.917c3.65,5.498,4.307,11.829,4.657,18.508 c0.177,3.372-0.382,5.641,0.424,8.852c0.883,3.519,0.458,9.487,2.268,12.51c-0.114,1.423,0.07,5.402-0.083,7.822 c-3.338,1.514-6.829,2.576-10.268,3.651c-1.92,0.601-8.706,6.249-3.707,7.115c0.094,2.729-0.867,7.337,0.099,9.941 c1.2,3.236,6.196,4.61,9.26,5.276c6.689,1.455,9.967,2.864,10.006,10.758c0.045,8.977-12.901,2.08-12.333,12.316 c0.21,3.785,3.259,6.561,3.674,10.237c0.293,2.601,0.484,8.747-1.074,11.022c-2.917,4.259-14.915,3.074-19.599,3.074 c-4.15,0-8.97-0.788-13.026,0.033c-4.842,0.979-7.874,2.972-12.957,2.967c-2.937-0.003-7.326,0.793-10.018-0.325 c-4.195-1.742-1.993-6.678-5.064-8.609c-4.972-3.125-10.902,3.489-16.286,2.934c-3.483-0.359-3.799-1.907-4.731-5.251 c-0.85-3.048-0.267-5.269,3.365-5.466c0.396-2.769,1.76-4.682,2.05-7.624c0.312-3.163,0.843-4.693,4.333-5.307 c4.897-0.862,10.155,3.923,15.943,1.59c1.817-6.07,1.724-13.58,1.724-20.095c0-7.361,1.383-15.24,0.333-22.513 c-0.227-1.574-0.555-1.862-1.083-3.268c-0.597-1.593-0.779-2.887-1.243-4.754c-0.486-1.954-3.149-4.273-1.941-6.578 c0.998-1.904,4.867-1.48,6.61-2.049c2.542-0.829,3.661-2.315,6.607-2.067c0.161-1.666,0.066-3.511,1.384-4.283">
      <title>People: True identity persistence: bundles of attributes (see Ship of Theseus)</title>
    </path>

    <path class="hilite" data-zoom="2" d="M276,103.335c-0.048-8.146-3.648-16.663-5-24.667c-1.158-6.853-1.345-13.451-2.017-20.325 c-0.747-7.635,0.488-13.566,3.965-19.956c4.045-7.434,8.941-10.235,16.402-13.377c6.607-2.783,13.869-5.927,21.649-3.933 c3.158,0.81,5.804,2.928,8.527,4.442c2.879,1.601,6.161,1.892,8.365,4.532c2.478,2.968,2.545,5.901,3.858,9.29 c0.956,2.468,2.325,4.112,2.909,6.668c1.428,6.248,1.674,12.926,1.674,19.651c0,8.359-0.617,16.693-2.268,24.765 c-0.508,2.482-0.792,5.936-1.975,7.975c-2.063,3.555-6.458,2.405-10.407,2.786c-8.846,0.854-17.925-0.263-26.825,0.141 c-6.224,0.283-11.893,2.119-18.119,1.988c-0.23-1.063-1.05-1.715-1.406-2.647">
      <title>Orgs</title>
    </path>

    <path class="hilite" data-zoom="2" d="M337,103.335c-0.048-8.146,1.352-16.663,0-24.667c-1.158-6.853-0.345-13.451-1.017-20.325 c-0.747-7.635,2.253-12.502,7.684-17.341c4.894-4.361,7.688-5.229,11-6.333c6.801-2.267,6.219-1.995,14,0 c3.158,0.81,6.943,1.819,9.667,3.333c2.879,1.601,4.462,4.013,6.667,6.653c2.478,2.968,1.688,6.958,3,10.347 c0.956,2.468,1.253,7.458,1,10.068c-0.667,6.874-0.667,6.874-0.667,13.599c0,8.359,8.383,3.686,6.732,11.757 c-0.508,2.482-0.792,5.936-1.975,7.975c-2.063,3.555-6.458,2.405-10.407,2.786c-8.846,0.854-17.925-0.263-26.825,0.141 c-6.224,0.283-11.893,2.119-18.119,1.988c-0.23-1.063-1.05-1.715-1.406-2.647">
      <title>Devices</title>
    </path>

    <path class="hilite" data-zoom="2" d="M400.333,99.668c-0.048-8.146,2.965-13.943-5.992-23.132c-4.851-4.977-5.345-14.451-6.017-21.325 c-0.747-7.635,2.253-12.502,7.684-17.341c4.894-4.361,7.688-5.229,11-6.333c6.801-2.267,4.664-1.857,14-2 c3.259-0.05,7.943,1.819,10.667,3.333c2.879,1.601,5.462,5.013,7.667,7.653c2.478,2.968,3.062,6.511,4,11.347 c0.504,2.599,0.253,7.458,0,10.068c-0.667,6.874-3.008,13.014-3.008,19.738c0,8.359,14.092-6.413,12.441,1.659 c-0.508,2.482,1.076,8.627-0.108,10.667c-2.063,3.555-13.693,3.672-17.643,4.053c-8.846,0.854-17.925,1.737-26.825,2.141 c-6.224,0.283-1.893,0.119-8.119-0.012c-0.23-1.063-2.05-14.715-2.406-15.647">
      <title>Ideas</title>
    </path>

    <path class="hilite" data-zoom="1.6" d="M386.666,123.001c2.138,0,4.277,0,6.415,0c2.157,0,2.836,0,2.038,0c4.06,0,7.67-0.092,11.594-1.017 c4.622-1.09,4.115-2.002,4.338-6.651c8.241-2.851,17.997-2.093,26.714-2.991c11.423-1.176,23.809-1.634,35.443-0.958 c0.988,6.299,0.389,15.262,0.142,21.737c-0.107,2.809,0.209,4.93,0.707,7.734c0.717,4.043-0.297,7.479-0.041,11.526 c-0.518,9.091-0.467,18.259-0.69,27.386c-0.072,2.942,1.295,7.271-1.083,9.214c-2.151,1.757-6.207,0.902-8.713,1.019 c-5.247,0.245-10.665,0.673-16.067,0.667c-3.99-0.005-7.977,0.095-11.96,0.132c-7.39,0.07-6.809,0-9.244-4.394 c-2.8-5.054-8.09-1.684-13.076-3.73c-4.182-1.716-1.583-5.18-2.85-8.34c-0.786-1.96-2.866-2.034-3.687-4.377 c-1.093-3.117,0.005-7.651-0.295-11.022c-0.165-1.859-0.8-3.384-1.267-5.126c-0.644-2.405-0.868-6.085-2.902-7.737 c-0.358-0.291-2.582-0.555-3.105-0.757c-3.884-1.5-9.069-1.002-11.11-4.84c-1.208-2.273-4.406-11.591-3.975-13.804 c0.723-3.707,6.476-3.338,9.343-3.338">
      <title>
* user sovereign
* decentralized
* distributed
* proof of ownership
      </title>
    </path>
    <path class="hilite" data-zoom="1.6" d="M512.332,17.668c11.773-0.04,23.318,1.333,34.999,1.333c8.594,0,19.045-2.725,27.34-0.69 c0.628,0.154,4.546,2.059,4.964,2.54c1.181,1.358,0.708,3.503,0.697,5.209c-0.028,4.471,0.373,8.743,0.777,13.185 c0.578,6.344,1.537,12.887,1.89,19.221c0.125,2.249-0.123,4.374,0.273,6.592c0.984,5.526,2.099,4.412,6.353,4.594 c3.012,0.129,7.4,0.604,10.291,1.924c2.712,1.24,2.862,2.125,3.083,5.066c0.122,1.624,0.574,5.744-0.399,7.037 c-1.502,1.996-6.055,1.263-8.422,1.321c-5.406,0.132-16.21-0.726-18.568,4.793c-1.098,2.569-1.518,9.885-0.194,12.474 c2.221,4.344,9.294,3.41,10.99,8.328c1.273,3.694-1.61,5.444-5.095,7.324c-3.088,1.666-5.753,0.312-8.695,1.419 c-3.314,1.248-1.451,2.958-2.676,5.56c-1.201,2.549-3.841,2.679-6.574,3.084c-9.266,1.377-19.479,0.288-29.013,1.358 c-7.922,0.89-12.839-0.676-13.693-8.909c-0.531-5.116,0.761-10.524-0.043-15.578c-0.862-5.422-5.744-4.526-6.99-9.362 c-0.813-3.155-0.299-7.154-0.294-10.317c0.009-6.37-1.707-13.006-1.005-19.287c0.542-4.849,2.613-9.441,1.672-14.571 c-0.613-3.344-0.355-2.007-3.967-2.949c-0.466-0.122-0.7-0.921-1.147-1.089c-2.473-0.93-4.716-1.193-7.34-1.541 c-5.094-0.675-10.333-2.455-15.481-2.097c-1.854-4.716-3.791-7.571-4.073-12.873c-0.237-4.456-0.425-5.708,2.187-8.752 c1.773-2.066,3.234-3.593,5.415-5.108c4.412-3.063,7.389-2.963,12.38-1.667c3.624,0.942,6.905,3.066,10.693,2.759">
      <title>Identity for everyone
* biometric attestation
* number, size, connections
* utilization: payments; mutual assets; services</title>
    </path>
    <path class="hilite" data-zoom="1.6" d="M480.999,131.002c10.413-0.73,21.751-4.377,32.172-2.099c5.346,1.168,9.32,3.28,15.203,3.808 c6.134,0.551,12.31-0.15,18.294-0.716c8.721-0.825,18.027,0.344,26.786,0.34c15.25-0.006,30.297-1.292,45.357,0.354 c-0.541,3.845-0.62,8.222-0.831,12.041c-1.036,6.656,2.049,17.197-1.222,24.055c-0.87,1.825-2.549,2.918-3.701,4.55 c-2.119,3.002-3.04,7.107-4.801,10.337c-0.66,1.212-1.554,1.932-1.895,3.255c5.616,4.245,12.432,7.742,8.307,15.42 c-2.332,4.34-4.95,3.427-10.101,4.728c-3.676,0.928-7.407,2.936-10.759,3.867c-3.296,6.783-5.026,11.476,5.162,14.838 c7.866,2.596,18.717-0.135,21.068,10.234c0.753,3.322-0.627,7.422,0.292,10.665c1.381,4.878,7.415,3.265,8.783,8.518 c1.656,6.356-2.05,15.089-4.986,20.328c-0.452,0.806-0.779,1.758-1.505,2.57c-3.138,3.509-8.848,4.591-13.289,5.259 c-5.89,0.886-14.766,0.141-20.211-2.456c-4.402-2.1-5.391-7.694-10.44-6.56c-13.35,2.998-21.663,4.241-33.155,4.349 c-6.886,0.065-13.388,0.292-20.216,1.233c-2.983,0.411-8.04,1.267-11.026,0.423c-7.417-2.094-6.884-9.695-7.269-15.939 c-0.24-3.894-1.928-7.385-2.279-11.304c-0.611-6.817,0.51-13.872,0.791-20.642c0.361-8.714,2.142-17.257,2.135-26.441 c-0.006-7.985-0.226-16.031-1.237-23.95c-0.427-3.338-1-6.34-0.943-9.51c0.044-2.5,1.182-5.91,0.45-8.448 c-1.427-4.943-5.17-6.452-9.59-6.439c-1.462,0.004-2.979-0.141-4.429-0.008c-2.557,0.234-4.762,1.923-7.355,1.899 c-7.565-0.069-10.11-7.319-11.151-13.35c-0.531-3.074-0.331-6.607,0.584-9.616c1.403-4.612,3.87-3.126,8.008-4.925">
      <title>Overall architecture of blockchain identity services
* what belongs/doesn't
* where and how stored
* redundancy
* zone files and pointers
* hardware
* storage of keys
* multiple IDs
* privacy and data limitation
* as little as possible should be stored in blockchain (common, minimal core)</title>
    </path>

    <path class="hilite" d="M496.664,159c-1.458,0.542-3.811,4.524-4.667,6c-1.23,2.12-1.932,5.008-2.667,7.333 c-1.649,5.218-1.49,12.081-1.3,17.616c4.574,0.222,12.664-2.421,14.975,1.709c3.504,6.265,1.369,14.31,1.326,21.008 c-0.044,6.861-0.859,13.559-1.667,20.338c-0.561,4.703-2.982,10.598-7.74,11.588c-3.564,0.742-7.467,0.406-11.167,0.406 c-4.344,0-8.476,0.788-12.758,1c-4.954,0.246-13.792,1.179-17.324-2.342c-3.512-3.501-3.342-10.213-3.342-15.233 c0-7.855-1.366-16.847-0.333-24.467c0.513-3.777,1.985-8.067,4.841-10.375c2.292-1.851,4.328-1.582,7.499-1.909 c5.481-0.564,11.757-0.163,17.275-1.058c-0.131-7.011,2.782-13.414,4.727-19.607c1.566-4.991,6.593-11.472,11.99-13.01">
      <title>* architecture standard
* roles
* DNS zone files</title>
    </path>

    <path class="hilite" d="M119.664,280.334c4.159,0.558,9.151-0.831,13.583-0.667c8.755,0.323,17.538,0.335,26.432,0.333 c9.403-0.001,21.23-2.253,30.263,0.39c1.778,2.807,12.331,1.472,15.372,1.018c6.838-1.021,14.965,0.878,18.767,7.235 c3.57,5.97,6.762,10.885,8.251,17.69c0.563,2.574,2.178,4.841,2.666,7.334c0.678,3.469-0.023,7.743-0.35,11.184 c-0.534,5.624-3.343,9.636-5.732,14.399c-2.348,4.679-3.865,8.123-9.658,9.342c-2.056,0.433-4.256,0.241-6.351,0.408 c-3.65,0.291-7.16,1.339-10.876,1.676c-8.276,0.751-16.606,0.539-24.976,0.324c-12.311-0.316-24.222,2.333-36.473,2.333 c-8.908,0-14.502,1.368-20.988-5.277c-5.511-5.646-10.103-11.123-12.846-18.797c-2.058-5.758-0.401-12.086-0.417-17.926 c-0.014-5.554-0.418-11.854,0.325-17.392c0.783-5.833,7.829-12.284,13.341-13.608">
      <title>Identity anchored and enabled by the blockchain</title>
    </path>

  <path class="hilite" d="M632.995,11.333c11.667,0,23.333-0.011,35,0c7.151,0.007,14.126-1.094,21.333-1.333 c10.963-0.364,21.741-1.333,32.667-1.333c6.054,0,11.621-0.989,17.667-0.667c5.578,0.297,13.279-0.973,17.733,1.859 c5.18,3.293,3.616,11.073,3.6,17.066c-0.018,6.753,1.392,13.614,0.684,20.481c-0.73,7.087-1.947,13.125-9.945,15.343 c-10.695,2.967-23.305-2.063-33.688,1.975c-0.533,3.256,0.14,6.191,0.262,9.603c0.177,4.932,2.768,9.179,3.613,13.966 c0.504,2.856,0.284,5.703,1.168,8.579c2.771,9.016,6.907,15.479,6.907,25.358c0,4.595-0.557,7.468-2.177,11.503 c-1.518,3.779-1.7,7.206-3.897,10.524c-1.81,2.733-3.709,3.646-6.267,5.391c-1.807,1.232-3.325,3.98-5.391,4.952 c-4.843,2.28-10.938-0.545-14.927-1.609c-2.798-0.746-8.359-0.599-11.267,0.009c-4.19,0.876-7.797,1.381-12.393,0.748 c-8.964-1.236-17.715-0.416-26.773-0.416c-7.361,0-15.832,2.642-18.59-5.993c-1.807-5.656-1.71-11.829-2.3-17.699 c-1.008-10.02-2.227-20.505-2.969-30.615c-0.25-3.412,0.78-6.61,1.309-9.97c0.75-4.756,0.652-9.903,0.642-14.739 c-0.013-6.208,0.875-13.403-0.251-19.407c-0.643-3.421-1.387-8.164-3.731-10.935c-2.398-2.834-6.024-3.538-8.767-5.634 c-5.833-4.457-7.769-8.229-7.25-16.008c0.41-6.153,3.782-11.341,9.992-12.675c3.629-0.78,7.624-1.035,11.341-0.316 c2.762,0.534,5.178,2.211,8,1.991">
      <title>Verifiable claims data models
* privacy
** selective disclosure
** editing/storage
* work with current legal framework
* blockchain not a panacea
* economic incentives
* lifetime-right to be forgotten</title>
    </path>

    
    <a xlink:href="https://www.w3.org/Payments/IG/wiki/Main_Page/ProposalsQ42015/VerifiableClaimsTaskForce" target="_blank">
      <path class="hilite" d="M706.995,39c7.333,2,6.485,0.523,9.616,0.64c0.84-6.812-1.06-12.87-0.984-20.64 c0.059-6.001,5.166-7.435,10.694-7.994c6.304-0.637,12.048-0.584,18.016-0.014c5.334,0.509,10.045,0.599,10.901,6.025 C757.284,30,756.328,40,756.329,50.667c0,5.662-6.692,6.087-12.001,6.683c-3.026,0.34-5.215,0.606-8,0.301 c-3.943-0.431-8.072-0.425-12-0.984c-3.818-0.544-6.546-3.253-6.05-7.616c-2.643,0.237-4.974-1.459-7.559-2.107 c-0.888-1.632-2.799-1.672-3.808-3.193c-0.879-1.327-3.183-3.382-2.867-5.033c0.755-0.055,1.865-0.244,2.616-0.05">
        <title>Join the Verifiable Claims Task Force!</title>
      </path>
    </a>

    <path class="hilite" d="M581.997,274.667c0.955,2.132,3.962,2.913,4.749,5.259c0.392,1.169,0.028,2.471,0.252,3.74 c0.218,1.233,0.326,2.47,0.348,3.667c0.085,4.617-11.263,6.86-8.357,12.082c2.124,3.816,8.392,2.445,11.941,3 c3.076,0.481,6.027,1.485,9.065,1.935c3.693,0.548,7.368,1.461,11.009,1.983c3.283,0.471,5.513-0.229,7.085,3.258 c1.262,2.799-0.355,4.805,2.649,6.659c2.399,1.481,7.81,0.957,10.259,2.047c3.079,1.371,2.621,3.77,2.666,7.036 c0.047,3.47-1.295,4.714-4.667,5.333c-5.139,0.944-10.76-1.006-15.938-1c-1.926,0.002-3.852,0-5.778,0 c-1.48,0-2.998,0.103-4.474,0.016c-2.517-0.149-5.553,0.251-7.838,0.276c-3.368,0.036-7.298-0.104-10.932,0.309 c-5.649,0.641-10.972,1.28-16.122,3.726c-7.202,3.419-11.295,8.099-14.618,15.367c-2.151,4.705-2.769,9.806-4.367,14.548 c-1.213,3.601-5.168,9.681-8.015,12.191c-2.21,1.949-8.898,5.056-11.934,2.833c-1.698-1.243-1.229-4.538-1.976-6.182 c-1.627-3.583-3.304-4.092-7.375-4.826c-4.325-0.779-7.846-0.04-11.967-1.333c-4.819-1.512-10.656-1.297-15.667-0.341 c-3.659,0.698-6.843,0.103-10.354,0.415c-3.241,0.288-6.818,0.168-10.072,0.018c-2.978-0.137-5.948,1.651-8.974,1.649 c-2.316-0.001-4.812-0.275-7.102,0.044c-3.008,0.418-5.196-0.439-7.774,0.255c-3.301,0.89-7.557,0.792-10.954,1.083 c-4.14,0.354-8.009,0.962-12.193,0.95c-5.469-0.017-10.938-0.002-16.408,0.001c-4.825,0.003-10.177,0.776-14.823-0.419 c-1.821-0.469-3.315,0.568-5.19,0.146c-3.386-0.762-6.826-0.063-10.223-0.459c-4.471-0.522-8.426-1.478-12.258-3.676 c-6.155-3.531-12.013-9.759-12.674-16.934c-0.708-7.676,5.175-9.419,10-13.657c2.985-2.622,3.399-5.051,4.75-8.677 c1.441-3.87,3.824-6.94,6.592-10.081c4.682-5.313,15.433-5.382,22.221-5.91c7.295-0.568,14.186-1.269,21.537-1.333 c3.869-0.033,7.75,0.116,11.618,0c3.234-0.097,6.609-1.01,9.833-1.326c3.026-0.296,9.615-0.966,12.117-2.008 c3.813-1.587,5.049-3.516,8.891-5.399c4.804-2.356,6.695-4.728,11.834-6.601c4.109-1.498,7.773-4.052,11.618-6.074 c7.755-4.079,17.192-5.959,25.993-7.184c7.12-0.99,13.842-1.409,21.138-1.409c7.042,0,13.223,1.303,20.21,1 c6-0.26,12.2-2.532,17.909-4.416c2.598-0.857,7.327-3.484,10.024-2.868c0.086,0.331-0.009,0.623,0.05,0.95">
      <title>Many opportunities! Truly universal: An open standard on an open platform</title>
    </path>
    
    <path class="hilite" d="M651.994,154.998c9.653-0.058,8.721,0.487,28.934,0.019c6.56-0.152,14.178,0.648,20.733,0.648 c6.515,0,13.173,0.424,19.667,0c5.802-0.379,11.396-1.148,17,0.333c1.392,0.368,2.674,0.02,3.758,1.235 c1.306,1.464,0.379,3.506,1.543,4.783c2.819,3.092,9.74,1.17,13.388,1.975c8.795,1.941,9.858,8.983,9.617,17.272 c-6.299,2.275-9.107,4.339-16.256,3.995c-4.661-0.225-9.884-0.888-14.476,0.074c-6.227,1.305-8.012,6.988-7.909,13.342 c0.034,2.066,0.006,8.475,2.616,8.393c0.276,4.642,0.333,7.053,2.36,11.34c0.798,1.687,1.393,3.315,2.098,5.057 c2.019,4.986,1.26,10.375,0.852,15.627c-0.93,11.945-4.581,23.468-4.592,35.574c-0.009,10.112,5.187,10.402,13.258,12.687 c4.705,1.332,9.074,7.133,7.417,12.657c-1.233,4.109-18.96,2.859-23.025,2.991c-12.405,0.403-25.125-0.69-37.581,0.759 c-5.233,0.609-10.402,0.123-15.819-0.676c-8.215-1.211-11.245-0.867-17.515-1.399c-12.658-1.075-10.114-18.446-9.742-27.374 c0.2-4.794,0.431-9.753,0.674-14.625c0.183-3.647,0.303-4.605-2.983-6.684c-6.791-4.296-12.956-10.115-15.592-18.242 c-2.856-8.805-4.698-20.034-0.424-28.423c3.179-6.239,7.189-15.436,2.074-21.775c-1.011-1.252-2.188-2.086-3.327-2.975 c-3.887-3.033-3.383-3.866-4.728-10.054c-1.07-4.921,1.497-9.981,5.649-13.207c3.875-3.011,5.549-2.602,10.342-3.315 C642.724,154.603,649.306,154.325,651.994,154.998c1.639,0.411,10.773,0.221,12,1">
      <title>Efficient thin-client verification of identity
* non-membership proof problem
** index data and commit
** linear commitment
* freshness problem
** proof of work
** query for hash chains
** classical BFT system
** Oracle system
** out-of-band communication</title>
    </path>
    <path class="hilite" d="M786.995,6.665c13.626,0,26.754-1.926,40.317-1.333c9.06,0.396,19.109,0.708,27.954-0.676 c9.014-1.41,16.752,0.132,25.674,0.668c4.101,0.247,12.594,0.338,16.304,2.417c3.761,2.107,3.353,8.999,3.103,12.998 c-0.335,5.341-1.224,10.21-0.686,15.619c0.658,6.622,0.819,6.066,7.927,6.642c10.547,0.854,21.5,0.626,32.112,1.025 c7.462,0.281,15.042-0.998,22.537-0.364c5.928,0.5,13.001,0.632,18.766,2.007c2.346,0.56,5.748,1.431,6.675,3.648 c1.087,2.598,0,7.903,0.401,10.69c0.809,5.624,1.107,11.963,0.601,17.742c-0.526,5.986-0.952,10.984-3.026,16.625 c-1.065,2.899-1.329,5.626-4.61,6.716c-3.917,1.301-9.613,0.243-13.731,0.243c-4.282,0-8.62,0.209-12.897-0.001 c-7.13-0.351-14.079-0.999-21.313-0.999c-15.906,0-30.981-1.484-46.736-2.408c-7.872-0.461-15.889-0.591-23.752-0.592 c-5.046,0-10.176,0.255-15.217,0.008c-4.339-0.213-8.344-1.303-12.78-1.34c-12.146-0.102-24.736-2.277-36.862-1.009 c-3.924,0.411-10.412,2.443-12.522-2.327c-1.656-3.745-0.792-11.587-1.252-15.649c-1.281-11.307-1.142-22.741-1.699-33.967 c-2.144-0.194-3.289-2.923-5.625-3.642c-1.922-0.591-2.595-0.463-4.193-1.678c-1.867-1.419-4.109-4.731-5.402-6.787 c-1.871-2.974-4.487-10.966-3.655-14.542c0.836-3.595,5.65-8.132,8.842-9.817C777.056,4.042,782.411,6.84,786.995,6.665">
      <title>Too much identity!
* least possible!
* spectrum: nothing; ephemeral; persistent; linked persistent to biological ID / legal ID (only if needed)
* use attribution or ephemeral ID when possible</title>
    </path>
    <path class="hilite" d="M786.328,101.331c17.345,0,34.648,0.518,51.91,0c8.539-0.256,17.243,0.303,25.821,0.333 c2.805,0.01,5.51-0.269,8.303-0.333c5.511-0.126,10.753,1.625,16.25,1.666c14.977,0.109,29.748,0.032,44.435,1.333 c9.245,0.819,18.2,1.475,27.449,3.021c4.655,0.779,6.497,2.403,6.832,7.647c0.413,6.462-4.201,13.06-5.075,19.561 c-0.778,5.782-1.812,10.056-4.594,15.014c-4.478,7.98-5.014,17.875-7.938,26.453c-2.023,5.94-5.762,10.871-7.039,17.445 c-1.532,7.883-1.808,15.969-3.604,23.79c-1.008,4.389-1.947,8.888-3.082,13.276c-0.605,2.345-0.77,5.835-3.004,7.225 c-3.28,2.04-11.943,0.797-15.812,1.162c-5.723,0.541-11.322,1.407-17.12,1.407c-15.202,0-30.261,0-45.427,0 c-8.663,0-17.258-1.266-25.946-0.666c-6.695,0.463-13.577,1.155-20.358,0.258c-3.501-0.463-7.089-0.746-10.649-0.926 c-5.658-0.285-9.165-0.28-11.092-6.279c-3.099-9.644-7.087-18.754-8.607-29.161c-1.58-10.81-2.016-21.728-3.376-32.551 c-1.114-8.857-0.794-17.772-1.959-26.622c-0.527-4.004,0.101-9.041-2.325-12.418c-3.741-5.206-10.107-8.368-12.738-14.302 c-2.479-5.591-3.825-13.193,0.407-18c3.188-3.621,9.945-2.778,14.34-3c5.979-0.302,8.186,4.979,14,5">
      <title>Hyperledger, IBM Membership, Services architecture
* centralized and decentralized services
* long-term and short-term ID pieces
* private and permissioned ledgers
** long-lived/authorization certs
** transactional certs, reduce/prevent corrolation
** specificity may go down over time
** rely on third-party vendors</title>
    </path>
    <path class="hilite" d="M785.329,244.331c15.877,0,31.769-0.05,47.648,0.333c8.482,0.205,16.718,1.667,25.327,1.667 c3.941,0,7.962,0.194,11.871-0.148c2.499-0.219,5.586-1.186,8.171-0.534c6.455,1.628,5.361,8.593,5.967,13.641 c0.786,6.547,3.5,8.082,8.373,11.301c7.892,5.215,15.737,13.873,17.577,23.465c0.734,3.834,0.846,7.748,1.523,11.528 c0.847,4.721,3.02,9.062,3.776,13.848c1.534,9.698,1.416,19.438,2.739,29.172c1.152,8.482,2.483,17.338,2.693,26.043 c0.124,5.153-0.316,10.38,0.148,15.498c0.289,3.187,1.043,6.795,0.811,10.136c-3.088,0.778-1.644,12.979-3.442,16.058 c-3.477,5.953-16.026,6.67-21.924,6.658c-22.917-0.048-45.971,0.771-68.869,0.008c-8.239-0.275-16.387-1.008-24.658-1.008 c-10.094,0-18.908,0.013-28.523-2.765c-13.204-3.815-17.517-18.148-21.802-29.961c-0.9-2.481-1.661-4.989-2.741-7.466 c-1.379-3.165-2.338-3.7-4.95-5.457c-5.698-3.834-12.509-4.019-19.675-4.019c-4.062,0-8.144,0.236-12.082-0.667 c-3.711-0.851-4.371-1.915-5.578-6.104c-0.538-1.869-0.828-4.183-0.716-6.173c0.33-5.829,4.877-10.535,10.237-12.314 c4.42-1.468,8.473-0.875,12.938-1.376c4.338-0.486,7.914-1.825,12.442-1.44c7.515,0.638,18.938,6.263,22.808-3.506 c2.799-7.067,3.839-16.16,4.893-23.767c1.059-7.649,1.35-15.376,1.35-23.22c0-6.859,0.264-13.325-3.259-19.432 c-1.734-3.007-4.079-3.847-6.999-5.577c-4.135-2.449-5.257-4.183-7.316-8.741c-2.029-4.491-2.213-9.745,0.665-14.032 c3.272-4.875,14.79-11.087,20.908-9.66c4.556,1.063,7.247,6.734,11.334,8.008">
      <title>Blockchain standards in healthcare
* connection to existing legal structures / regulation requirements
* drive cost of ownership to edges
* aggregational issue and transactional issue
* safeguard integrity
* leave data at point of origin
* standards:
** blockchain and self-sovereign ID
** authorization
** digital postmark
* tech
** self-sovereign mobile
** self-sovereign server
** reputation</title>
    </path>


    <a xlink:href="http://dpict.info/" target="_blank">
      <path id="dpict" class="hilite" d="M950.662,413.664c0-4.959-0.301-10.348,5.74-11c5.883-0.635,4.741,5.553,4.984,9.608 c3.371,1.466,5.188-1.804,8.268-2.283c1.584-0.246,2.896,0.063,4.008,0.675c1.341,0.738,0.815,2.563,2.941,2.274 c1.019-2.762-0.184-5.822,3.042-7.292c4.456-2.031,5.332,0.846,6.675,3.691c1.992,4.22,6.774,1.343,7.342,5.75 c0.484,3.764-0.865,8.899-1.034,12.882c-7.166,0.309-15.67,2.164-22.966,3.693c-2.635,0.552-3.33,2.636-6.334,3.258 c-4.279,0.887-3.385-1.168-5.074-3.518c-3.259-4.532-11.978,1.216-15.657-3.657c-3.29-4.357,0.224-10.272,4.389-12.427 c0.851-0.439,1.691-0.781,2.677-0.99">
        <title>dpict. graphical scribing and facilitation</title>
      </path>
    </a>  

  </g>


  <use id="hilite-magnifier" xlink:href="#source-image" clip-path="url(#hilite-clip)"/>
</svg>

