<?xml version="1.0" encoding="utf-8"?>
<!-- Generator: Adobe Illustrator 16.0.0, SVG Export Plug-In . SVG Version: 6.00 Build 0)  -->
<!DOCTYPE svg PUBLIC "-//W3C//DTD SVG 1.1//EN" "http://www.w3.org/Graphics/SVG/1.1/DTD/svg11.dtd">
<svg version="1.1" id="Layer_1" xmlns="http://www.w3.org/2000/svg" xmlns:xlink="http://www.w3.org/1999/xlink" x="0px" y="0px"
	 width="162.167px" height="87.542px" viewBox="0 0 162.167 87.542" enable-background="new 0 0 162.167 87.542"
	 xml:space="preserve">
<path d="M74.785,87.02V49.891H37.656V12.763H0.527V0.387h49.505v37.129h37.128V87.02H74.785z M0.534,37.516V87.02h49.499V74.644
	H12.904V37.516H0.534z M99.544,49.203h3.718v-6.549c0-0.698,0.166-1.269,0.491-1.711c0.327-0.44,0.781-0.662,1.358-0.662
	c0.561,0,0.977,0.172,1.242,0.514s0.398,0.833,0.398,1.472v6.936h3.719v-6.549c0-0.698,0.16-1.269,0.48-1.711
	c0.318-0.44,0.775-0.662,1.368-0.662c0.563,0,0.976,0.172,1.242,0.514c0.269,0.342,0.399,0.833,0.399,1.472v6.936h3.72v-7.596
	c0-0.657-0.085-1.256-0.251-1.803c-0.169-0.547-0.416-1.014-0.743-1.404c-0.326-0.387-0.741-0.687-1.241-0.901
	c-0.503-0.212-1.081-0.318-1.733-0.318c-0.763,0-1.449,0.163-2.064,0.491c-0.618,0.328-1.154,0.848-1.607,1.562h-0.048
	c-0.304-0.636-0.733-1.14-1.287-1.504c-0.557-0.366-1.222-0.548-1.997-0.548c-0.853,0-1.565,0.182-2.134,0.548
	c-0.57,0.365-1.037,0.852-1.404,1.46h-0.066v-1.666h-3.56V49.203z M119.321,35.904h3.719v-3.012h-3.719V35.904z M119.321,49.203
	h3.719V37.522h-3.719V49.203z M130.761,49.283c0.341-0.037,0.596-0.08,0.765-0.128v-2.713c-0.075,0-0.189,0.005-0.343,0.012
	c-0.149,0.007-0.31,0.012-0.479,0.012c-0.396,0-0.712-0.077-0.946-0.229c-0.237-0.151-0.354-0.458-0.354-0.913V39.85h2.121v-2.327
	h-2.121v-3.696h-3.628v3.696h-1.55v2.327h1.55v6.274c0,0.623,0.092,1.145,0.275,1.562c0.181,0.419,0.438,0.748,0.775,0.991
	c0.334,0.243,0.726,0.415,1.174,0.514c0.448,0.101,0.947,0.146,1.494,0.146C129.998,49.336,130.421,49.321,130.761,49.283z
	 M99.544,66.909h3.718v-6.548c0-0.7,0.166-1.27,0.491-1.71c0.327-0.443,0.781-0.664,1.358-0.664c0.561,0,0.977,0.173,1.242,0.515
	s0.398,0.833,0.398,1.47v6.938h3.719v-6.548c0-0.7,0.16-1.27,0.48-1.71c0.318-0.443,0.775-0.664,1.368-0.664
	c0.563,0,0.976,0.173,1.242,0.515c0.269,0.342,0.399,0.833,0.399,1.47v6.938h3.72v-7.598c0-0.653-0.085-1.255-0.251-1.803
	c-0.169-0.548-0.416-1.013-0.743-1.401c-0.326-0.387-0.741-0.69-1.241-0.901c-0.503-0.212-1.081-0.322-1.733-0.322
	c-0.763,0-1.449,0.167-2.064,0.494c-0.618,0.325-1.154,0.847-1.607,1.562h-0.048c-0.304-0.641-0.733-1.141-1.287-1.508
	c-0.557-0.363-1.222-0.549-1.997-0.549c-0.853,0-1.565,0.186-2.134,0.549c-0.57,0.367-1.037,0.854-1.404,1.463h-0.066v-1.666h-3.56
	V66.909z M126.965,66.975c0.6-0.181,1.145-0.445,1.631-0.798c0.517-0.349,0.943-0.764,1.276-1.243
	c0.335-0.479,0.564-0.984,0.685-1.514h-3.627c-0.167,0.364-0.41,0.649-0.73,0.854c-0.32,0.201-0.722,0.306-1.207,0.306
	c-0.778,0-1.376-0.226-1.804-0.681c-0.426-0.457-0.699-1.083-0.82-1.875h8.395c0.016-1.184-0.147-2.267-0.49-3.249
	c-0.342-0.98-0.865-1.79-1.562-2.428c-0.502-0.458-1.085-0.813-1.745-1.072c-0.662-0.26-1.41-0.392-2.248-0.392
	c-0.896,0-1.709,0.158-2.439,0.471c-0.73,0.311-1.362,0.745-1.895,1.3c-0.531,0.555-0.942,1.211-1.231,1.962
	c-0.289,0.754-0.434,1.563-0.434,2.429c0,0.881,0.145,1.705,0.434,2.464c0.289,0.764,0.7,1.418,1.231,1.977
	c0.532,0.551,1.187,0.985,1.962,1.296c0.774,0.312,1.642,0.468,2.602,0.468C125.69,67.249,126.365,67.161,126.965,66.975z
	 M122.39,59.813c0.123-0.701,0.373-1.256,0.754-1.665c0.382-0.41,0.927-0.615,1.643-0.615c0.607,0,1.109,0.205,1.505,0.615
	c0.397,0.409,0.631,0.964,0.707,1.665H122.39z M138.847,66.76c0.585-0.342,1.052-0.815,1.401-1.428h0.048v1.577h3.558V50.598h-3.717
	v5.952h-0.068c-0.352-0.485-0.778-0.885-1.278-1.195c-0.503-0.312-1.167-0.471-1.984-0.471c-0.763,0-1.455,0.154-2.077,0.458
	c-0.625,0.305-1.158,0.728-1.606,1.269c-0.451,0.539-0.8,1.188-1.052,1.947c-0.249,0.762-0.376,1.599-0.376,2.508
	c0,0.976,0.127,1.848,0.376,2.616c0.252,0.767,0.606,1.416,1.063,1.948c0.455,0.533,0.993,0.939,1.618,1.221
	c0.624,0.28,1.305,0.422,2.054,0.422C137.58,67.272,138.261,67.101,138.847,66.76z M136.062,63.442
	c-0.4-0.594-0.602-1.401-0.602-2.421c0-0.984,0.203-1.79,0.616-2.405c0.41-0.617,0.988-0.924,1.731-0.924
	c0.411,0,0.765,0.083,1.062,0.25c0.297,0.168,0.547,0.402,0.753,0.696c0.204,0.296,0.356,0.654,0.457,1.071
	c0.097,0.42,0.147,0.871,0.147,1.355c0,0.959-0.22,1.745-0.65,2.354c-0.436,0.605-1.037,0.911-1.814,0.911
	C137.035,64.331,136.467,64.034,136.062,63.442z M145.351,53.607h3.718v-3.01h-3.718V53.607z M145.351,66.909h3.718v-11.68h-3.718
	V66.909z M156.448,66.772c0.541-0.291,0.986-0.678,1.334-1.166h0.048c0.046,0.307,0.098,0.568,0.159,0.789
	c0.059,0.219,0.14,0.391,0.228,0.514h3.604V66.75c-0.168-0.107-0.277-0.295-0.33-0.561c-0.055-0.267-0.081-0.635-0.081-1.107v-5.884
	c0-0.729-0.122-1.375-0.366-1.939c-0.242-0.562-0.612-1.027-1.115-1.39c-0.424-0.321-0.946-0.559-1.553-0.721
	c-0.609-0.159-1.354-0.24-2.234-0.24c-0.881,0-1.65,0.107-2.303,0.321c-0.656,0.211-1.199,0.499-1.634,0.866
	c-0.432,0.362-0.763,0.793-0.991,1.278c-0.229,0.486-0.349,1.004-0.365,1.551h3.421c0.061-0.488,0.243-0.859,0.549-1.119
	c0.303-0.257,0.752-0.387,1.345-0.387c0.564,0,0.97,0.114,1.223,0.343c0.249,0.226,0.375,0.532,0.375,0.913
	c0,0.394-0.219,0.677-0.661,0.842c-0.44,0.168-1.211,0.321-2.303,0.455c-0.608,0.079-1.185,0.191-1.726,0.345
	c-0.54,0.151-1.015,0.367-1.426,0.649c-0.411,0.281-0.731,0.638-0.97,1.07c-0.235,0.435-0.352,0.971-0.352,1.609
	c0,0.579,0.098,1.089,0.295,1.529c0.198,0.44,0.473,0.815,0.823,1.116c0.349,0.305,0.771,0.533,1.267,0.684
	c0.492,0.154,1.027,0.23,1.608,0.23C155.196,67.205,155.91,67.06,156.448,66.772z M154.362,64.534
	c-0.307-0.197-0.456-0.532-0.456-1.004c0-0.438,0.158-0.771,0.481-0.991c0.316-0.22,0.832-0.412,1.549-0.584
	c0.379-0.088,0.734-0.184,1.06-0.282c0.328-0.1,0.61-0.209,0.856-0.331v1.392c0,0.639-0.218,1.149-0.652,1.528
	c-0.431,0.38-1,0.571-1.697,0.571C155.044,64.833,154.666,64.734,154.362,64.534z M99.544,87.021h3.763V70.711h-3.763V87.021z
	 M110.71,86.884c0.54-0.288,0.984-0.675,1.335-1.163h0.046c0.045,0.304,0.1,0.565,0.159,0.788c0.062,0.22,0.137,0.392,0.229,0.513
	h3.604v-0.159c-0.169-0.107-0.279-0.292-0.33-0.559c-0.054-0.267-0.081-0.635-0.081-1.107v-5.884c0-0.729-0.121-1.375-0.365-1.939
	c-0.242-0.562-0.616-1.028-1.118-1.394c-0.425-0.318-0.942-0.556-1.55-0.717c-0.608-0.157-1.353-0.239-2.236-0.239
	c-0.881,0-1.65,0.105-2.304,0.32c-0.653,0.21-1.198,0.499-1.631,0.866c-0.435,0.363-0.765,0.789-0.994,1.276
	c-0.227,0.488-0.349,1.004-0.362,1.552h3.422c0.061-0.489,0.242-0.861,0.547-1.117c0.304-0.259,0.751-0.389,1.346-0.389
	c0.562,0,0.97,0.113,1.219,0.342c0.252,0.229,0.38,0.53,0.38,0.913c0,0.396-0.223,0.678-0.664,0.844
	c-0.44,0.166-1.209,0.317-2.304,0.457c-0.607,0.073-1.182,0.188-1.722,0.342c-0.54,0.151-1.015,0.368-1.426,0.649
	c-0.41,0.28-0.735,0.638-0.97,1.074c-0.235,0.433-0.355,0.969-0.355,1.605c0,0.579,0.099,1.089,0.298,1.528
	c0.198,0.44,0.471,0.815,0.821,1.118c0.351,0.305,0.771,0.532,1.265,0.687c0.496,0.15,1.031,0.227,1.609,0.227
	C109.461,87.318,110.17,87.174,110.71,86.884z M108.625,84.649c-0.306-0.198-0.458-0.532-0.458-1.005
	c0-0.442,0.159-0.77,0.479-0.992c0.318-0.219,0.836-0.414,1.551-0.58c0.378-0.092,0.734-0.186,1.061-0.285
	c0.328-0.1,0.612-0.21,0.856-0.331v1.391c0,0.639-0.218,1.149-0.651,1.528c-0.434,0.381-1,0.571-1.698,0.571
	C109.308,84.946,108.927,84.848,108.625,84.649z M126.531,86.965c0.617-0.281,1.142-0.689,1.574-1.221s0.768-1.183,1.005-1.951
	c0.235-0.767,0.353-1.638,0.353-2.612c0-0.881-0.117-1.697-0.353-2.452c-0.237-0.751-0.572-1.406-1.005-1.959
	c-0.433-0.555-0.957-0.99-1.574-1.301c-0.616-0.313-1.303-0.471-2.064-0.471c-0.806,0-1.47,0.153-1.994,0.457
	c-0.526,0.306-0.971,0.706-1.336,1.211h-0.069v-5.955h-3.717v16.311h3.558v-1.483h0.046c0.365,0.608,0.851,1.068,1.46,1.381
	c0.609,0.312,1.302,0.468,2.077,0.468C125.235,87.387,125.915,87.245,126.531,86.965z M121.615,83.542
	c-0.441-0.602-0.661-1.387-0.661-2.361c0-0.957,0.201-1.756,0.605-2.394c0.4-0.64,1.015-0.959,1.837-0.959
	c0.761,0,1.332,0.307,1.721,0.914c0.388,0.607,0.583,1.412,0.583,2.417c0,1.018-0.195,1.821-0.583,2.407
	c-0.389,0.586-0.946,0.878-1.677,0.878C122.665,84.444,122.056,84.145,121.615,83.542z"/>
</svg>
